<?xml version="1.0" encoding="UTF-8" standalone="no"?>
<!-- Created with Inkscape (http://www.inkscape.org/) -->

<svg
   width="1242"
   height="2436"
   viewBox="0 0 328.61249 644.525"
   version="1.1"
   id="svg5"
   inkscape:version="1.2.1 (1:1.2.1+202210291244+9c6d41e410)"
   sodipodi:docname="splash.svg"
   inkscape:export-filename="splash.png"
   inkscape:export-xdpi="96"
   inkscape:export-ydpi="96"
   xmlns:inkscape="http://www.inkscape.org/namespaces/inkscape"
   xmlns:sodipodi="http://sodipodi.sourceforge.net/DTD/sodipodi-0.dtd"
   xmlns="http://www.w3.org/2000/svg"
   xmlns:svg="http://www.w3.org/2000/svg">
  <sodipodi:namedview
     id="namedview7"
     pagecolor="#505050"
     bordercolor="#ffffff"
     borderopacity="1"
     inkscape:showpageshadow="0"
     inkscape:pageopacity="0"
     inkscape:pagecheckerboard="1"
     inkscape:deskcolor="#505050"
     inkscape:document-units="px"
     showgrid="false"
     inkscape:zoom="0.19827586"
     inkscape:cx="622.86957"
     inkscape:cy="1223.0435"
     inkscape:window-width="1366"
     inkscape:window-height="736"
     inkscape:window-x="1366"
     inkscape:window-y="0"
     inkscape:window-maximized="1"
     inkscape:current-layer="layer1"
     showguides="true" />
  <defs
     id="defs2" />
  <g
     inkscape:label="Layer 1"
     inkscape:groupmode="layer"
     id="layer1">
    <g
       aria-label="ÐarkÖs"
       id="text851"
       style="font-size:30.0717px;line-height:1.25;font-family:Eczar;-inkscape-font-specification:'Eczar, Normal';font-variation-settings:'wght' 500;text-align:center;text-anchor:middle;fill:#ffffff;stroke-width:0.405755"
       transform="matrix(0.55376653,0,0,0.55376653,73.318951,285.53669)"
       inkscape:label="DarkOs">
      <path
         d="m 115.8157,599.48599 -0.18043,-0.93222 1.29309,-1.29308 h 9.68308 l 0.18043,0.93222 -1.29308,1.29308 z m 5.65348,8.42008 -0.18043,-2.91696 q 0.99237,0.36086 1.83438,0.51122 0.87208,0.15036 1.65394,0.15036 1.62387,0 2.82674,-0.63151 1.20287,-0.6315 1.98473,-1.74415 0.78187,-1.11266 1.14273,-2.46588 0.39093,-1.3833 0.39093,-2.79667 0,-1.74416 -0.51122,-3.30789 -0.51122,-1.56373 -1.3833,-2.79667 -0.87208,-1.23294 -2.04487,-1.86444 l -5.38284,0.48114 -5.35276,-2.28544 q 2.34559,-0.12029 4.66111,-0.18043 2.31552,-0.0602 4.63104,-0.0602 2.25538,0 3.99954,0.87208 1.74416,0.84201 2.91695,2.25538 1.20287,1.41337 1.83438,3.1876 0.6315,1.77423 0.6315,3.6086 0,1.89452 -0.60143,3.69882 -0.60143,1.77423 -1.86445,3.1876 -1.23293,1.41337 -3.15752,2.25538 -1.92459,0.84201 -4.60097,0.84201 z m -5.29262,0 -0.18043,-0.9623 q 0.69165,-0.39093 1.44344,-0.69165 0.7518,-0.30071 1.53366,-0.54129 l 0.0301,2.19524 z m 2.37567,0 v -19.63682 h 3.66875 v 19.63682 z m 1.02244,-17.86259 -3.15753,-0.30072 0.0301,-1.50358 h 3.09738 z"
         id="path1459"
         inkscape:label="D" />
      <path
         d="m 147.27066,608.35714 q -0.42101,0 -0.9623,-0.36086 -0.51122,-0.36086 -0.96229,-0.93222 -0.45108,-0.57136 -0.69165,-1.23294 l -0.12029,-0.33079 v -7.18714 q 0,-1.41336 -0.36086,-2.10501 -0.36086,-0.69165 -1.08258,-1.05251 -0.72172,0.0301 -1.53366,0.18043 -0.81193,0.12028 -1.29308,0.30071 l -0.421,3.1876 -2.04488,0.0902 q -0.36086,-0.84201 -0.57136,-1.86445 -0.18043,-1.05251 -0.18043,-2.04487 0.78186,-0.39093 1.77423,-0.75179 0.99236,-0.36086 2.0148,-0.63151 1.05251,-0.30072 1.92459,-0.45108 0.87208,-0.18043 1.3833,-0.18043 0.72172,0 1.41337,0.33079 0.69165,0.30072 1.26301,0.81194 0.57136,0.48115 0.87208,0.99236 0.24057,0.39094 0.30072,0.99237 0.0601,0.60143 0.0601,2.10502 v 6.73606 q 0,0.33079 0.2105,0.48115 0.24057,0.15036 0.57136,0.15036 0.33079,0 0.69165,-0.0602 0.39093,-0.0601 0.75179,-0.15036 l 0.36087,1.32316 z m -5.77377,-0.0601 q -1.68402,0.2105 -2.79667,-0.33079 -1.11265,-0.54129 -1.65394,-1.44344 -0.54129,-0.93222 -0.54129,-1.83437 0,-0.90216 0.51122,-1.80431 0.51121,-0.90215 1.68401,-1.53365 l 6.64585,-0.18043 -0.0902,1.71408 -0.60143,-0.0301 q -0.7518,-0.0601 -1.56373,-0.0301 -0.78187,0.0301 -1.47351,0.2105 -0.66158,0.15036 -1.11266,0.54129 -0.421,0.36086 -0.421,0.99237 0,0.36086 0.18043,0.75179 0.18043,0.36086 0.51122,0.60143 0.78186,0 1.5938,-0.2105 0.81193,-0.2105 1.53365,-0.48114 0.72173,-0.27065 1.14273,-0.45108 l 0.12029,1.26301 z"
         id="path1461"
         inkscape:label="a" />
      <path
         d="m 153.31502,607.90607 v -13.44205 l 2.19524,-1.26301 1.32315,1.23294 v 13.47212 z m 2.40574,-7.03678 -0.63151,-2.04488 4.87162,-5.17233 q 1.02244,-0.421 1.95466,-0.30072 0.93222,0.0902 1.65394,0.60144 0.0601,0.57136 0,1.26301 -0.0301,0.69165 -0.12028,1.41337 -0.0902,0.72172 -0.24058,1.44344 -0.15036,0.69165 -0.33079,1.29308 h -2.04487 l -0.42101,-3.36803 q -0.75179,0.42101 -1.5938,1.11266 -0.81193,0.69165 -1.62387,1.62387 -0.81193,0.93222 -1.47351,2.13509 z m -4.66111,-5.23248 -0.27065,-1.44344 q 1.02244,-0.45107 2.28545,-0.69165 1.26301,-0.27064 2.43581,-0.30071 l 0.24057,1.20286 -1.65394,1.29309 z m 0.18043,12.26926 -0.12029,-1.02244 q 0.6315,-0.33079 1.56373,-0.66158 0.96229,-0.33079 1.62387,-0.48115 l -0.36086,2.16517 z m 4.81147,0 0.27064,-2.31552 q 0.54129,0.0301 1.23294,0.18043 0.72172,0.12028 1.3833,0.30071 0.66158,0.15036 1.05251,0.39094 l -0.12029,1.44344 z"
         id="path1463"
         inkscape:label="r" />
      <path
         d="m 166.87733,607.90607 v -20.83969 l 2.16516,-1.29308 1.35323,1.20286 v 20.92991 z m 1.65394,-5.32269 -0.24057,-0.63151 3.54846,-1.95466 4.54083,-5.53319 2.04487,-1.26301 1.08258,1.68401 -5.80384,6.85635 z m 8.39001,5.68355 q -0.60144,-0.2105 -1.02244,-0.63151 -0.39093,-0.421 -0.90215,-1.17279 l -3.3981,-5.23248 2.94702,-1.32316 4.02961,5.7437 q 0.2105,0.30072 0.66158,0.36086 0.45107,0.0301 1.11265,-0.0601 l 0.33079,1.35322 z m -12.3294,-20.05783 -0.27065,-1.44344 q 1.02244,-0.421 2.28545,-0.66157 1.26301,-0.27065 2.43581,-0.33079 l 0.24057,1.23294 -1.65394,1.29308 z m 8.66065,7.42771 -0.30072,-1.44344 q 0.81194,-0.30071 1.77423,-0.51122 0.99237,-0.2105 1.95466,-0.33079 0.99237,-0.15035 1.74416,-0.15035 l -0.0301,1.41337 -1.35323,0.87208 z m -8.51029,12.26926 -0.12029,-1.02244 q 0.66158,-0.33079 1.5938,-0.66158 0.9623,-0.33079 1.62387,-0.48115 l -0.39093,2.16517 z m 3.99953,0 0.15036,-2.19524 q 0.81194,0.0902 1.65395,0.27065 0.842,0.18043 1.41337,0.48115 l -0.15036,1.44344 z"
         id="path1465"
         inkscape:label="k" />
      <path
         d="m 191.56618,608.5075 q -1.8043,0 -3.51839,-0.6315 -1.71409,-0.66158 -3.09738,-1.92459 -1.35323,-1.29309 -2.16517,-3.21768 -0.78186,-1.95466 -0.78186,-4.54082 0,-3.1876 1.23294,-5.56327 1.23294,-2.37566 3.33796,-3.66874 2.13509,-1.32316 4.7814,-1.32316 1.89452,0 3.6086,0.69165 1.74416,0.69165 3.06732,2.07495 1.35322,1.35322 2.13509,3.36803 0.78186,1.98473 0.78186,4.54082 0,2.58617 -0.78186,4.51076 -0.78187,1.92459 -2.13509,3.1876 -1.32316,1.23294 -3.00717,1.86445 -1.65395,0.6315 -3.45825,0.6315 z m 0.54129,-2.40574 q 0.51122,0 0.99237,-0.0601 0.51122,-0.0902 1.02244,-0.2105 1.29308,-0.90215 2.07494,-2.88688 0.78187,-1.98474 0.78187,-4.48069 0,-1.62387 -0.36086,-3.12745 -0.36086,-1.50359 -1.11266,-2.70646 -0.72172,-1.20286 -1.86444,-1.92459 -1.11265,-0.72172 -2.67638,-0.72172 -0.57137,0 -1.23294,0.12029 -0.63151,0.12029 -1.29309,0.36086 -0.72172,0.60144 -1.29308,1.68402 -0.57136,1.08258 -0.90215,2.52602 -0.30072,1.44344 -0.30072,3.03724 0,1.65394 0.36086,3.1876 0.39094,1.50359 1.14273,2.67638 0.75179,1.1728 1.89451,1.86445 1.1728,0.66157 2.7666,0.66157 z m 2.82674,-20.17811 q -1.62387,-0.48114 -2.28545,-1.86444 0.0902,-0.93222 0.63151,-1.56373 0.54129,-0.6315 1.29308,-1.02244 0.81194,0.30072 1.44344,0.87208 0.63151,0.57136 0.78187,1.35323 -0.45108,1.53366 -1.86445,2.2253 z m -6.52556,0 q -1.5938,-0.48114 -2.28545,-1.86444 0.0902,-0.93222 0.63151,-1.56373 0.57136,-0.6315 1.32315,-1.02244 0.78187,0.30072 1.41337,0.87208 0.63151,0.57136 0.81194,1.35323 -0.45108,1.53366 -1.89452,2.2253 z"
         id="path1467"
         inkscape:label="O" />
      <path
         d="m 207.47409,608.5075 q -1.26301,0 -2.70645,-0.39093 -1.41337,-0.36086 -2.91696,-1.20287 l 1.29308,-3.06731 q 1.1728,0.81193 2.67638,1.53365 1.50359,0.69165 3.09739,1.02244 0.36086,-0.27064 0.54129,-0.66158 0.18043,-0.421 0.18043,-0.87207 0,-0.78187 -0.54129,-1.32316 -0.51122,-0.54129 -1.35323,-0.96229 -0.842,-0.42101 -1.8043,-0.81194 -0.93222,-0.421 -1.77423,-0.96229 -0.81193,-0.54129 -1.35323,-1.32316 -0.54129,-0.78186 -0.54129,-1.92459 0,-1.41337 0.81194,-2.40573 0.84201,-1.02244 2.22531,-1.53366 1.38329,-0.51122 3.00717,-0.51122 1.08258,0 2.13509,0.24057 1.08258,0.24058 1.98473,0.69165 l -0.99237,2.49595 q -0.99236,-0.81193 -2.37566,-1.14272 -1.35323,-0.36086 -2.49595,-0.30072 -0.63151,0.33079 -0.84201,0.7518 -0.2105,0.421 -0.2105,0.81193 0,0.75179 0.54129,1.26301 0.54129,0.51122 1.3833,0.93223 0.842,0.421 1.8043,0.842 0.96229,0.42101 1.8043,0.99237 0.84201,0.54129 1.3833,1.35323 0.54129,0.81193 0.54129,2.0148 0,1.92459 -1.50359,3.1876 -1.50358,1.26301 -3.99953,1.26301 z m 2.49595,-10.46495 -0.72172,-3.93939 3.1876,-0.0602 q 0.0601,0.99237 -0.0601,2.01481 -0.12029,1.02244 -0.45108,1.98473 z"
         id="path1469"
         inkscape:label="s" />
    </g>
    <g
       aria-label="tĭti"
       id="text404-6-3"
       style="font-size:352.231px;line-height:1.25;font-family:'Red Hat Mono';-inkscape-font-specification:'Red Hat Mono, @wght=400';font-variation-settings:'wght' 400;text-align:center;text-anchor:middle;display:inline;fill:#ffffff;stroke-width:7.33816"
       inkscape:label="typography"
       transform="matrix(0.1700388,0,0,0.1700388,77.246387,235.20263)">
      <path
         d="m 227.92649,641.97324 q -28.88294,0 -44.38111,-12.32809 -15.14593,-12.68031 -15.14593,-36.63202 V 487.69607 h -58.82257 v -21.13386 h 58.82257 v -47.19896 l 25.71286,-5.98792 v 53.18688 h 79.25197 v 21.13386 h -79.25197 v 101.09029 q 0,16.20262 8.80578,23.24724 8.80577,7.04462 25.36063,7.04462 10.2147,0 21.13386,-2.11338 10.91916,-2.11339 23.9517,-7.04462 v 23.24724 q -11.62362,4.22677 -22.89501,6.34016 -11.27139,2.46562 -22.54278,2.46562 z"
         id="path1006-5"
         inkscape:label="t" />
      <path
         d="m 451.59263,641.97324 q -27.12179,0 -41.56326,-12.68032 Q 395.5879,616.61261 395.5879,591.25198 V 487.69607 h -63.75381 v -21.13386 h 89.46668 v 122.22415 q 0,16.20262 7.74908,23.24724 7.74908,7.04462 22.89501,7.04462 9.15801,0 18.66824,-1.76115 9.51024,-2.11339 21.13386,-6.69239 v 23.24724 q -10.2147,3.52231 -20.42939,5.6357 -9.86247,2.46562 -19.72494,2.46562 z M 408.97268,434.50919 q -21.48609,0 -36.27979,-11.62363 -14.7937,-11.97585 -19.72494,-32.75748 l 17.96378,-4.22677 q 8.10132,32.40525 38.04095,32.40525 14.44147,0 23.95171,-8.45354 9.86247,-8.45355 13.73701,-23.95171 l 17.61155,4.22677 q -4.57901,20.78163 -19.37271,32.75748 -14.7937,11.62363 -35.92756,11.62363 z"
         id="path1008-6"
         inkscape:label="i" />
      <path
         d="m 650.6026,641.97324 q -28.88294,0 -44.3811,-12.32809 -15.14593,-12.68031 -15.14593,-36.63202 V 487.69607 h -58.82258 v -21.13386 h 58.82258 v -47.19896 l 25.71286,-5.98792 v 53.18688 h 79.25197 v 21.13386 h -79.25197 v 101.09029 q 0,16.20262 8.80577,23.24724 8.80578,7.04462 25.36063,7.04462 10.2147,0 21.13386,-2.11338 10.91916,-2.11339 23.95171,-7.04462 v 23.24724 q -11.62362,4.22677 -22.89501,6.34016 -11.27139,2.46562 -22.54279,2.46562 z"
         id="path1010-2"
         inkscape:label="t"
         style="fill:#ff9494;fill-opacity:1" />
      <path
         d="m 831.29655,425.70341 q -9.158,0 -15.85039,-6.34016 -6.34016,-6.69239 -6.34016,-15.49816 0,-9.15801 6.34016,-15.49816 6.69239,-6.34016 15.85039,-6.34016 9.15801,0 15.49816,6.34016 6.69239,6.34015 6.69239,15.49816 0,8.80577 -6.69239,15.49816 -6.34015,6.34016 -15.49816,6.34016 z m 42.97218,216.26983 q -27.12178,0 -41.56325,-12.68032 Q 818.264,616.61261 818.264,591.25198 V 487.69607 h -63.7538 v -21.13386 h 89.46667 v 122.22415 q 0,16.20262 7.74908,23.24724 7.74908,7.04462 22.89501,7.04462 9.15801,0 18.66824,-1.76115 9.51024,-2.11339 21.13386,-6.69239 v 23.24724 q -10.21469,3.52231 -20.42939,5.6357 -9.86247,2.46562 -19.72494,2.46562 z"
         id="path1012-9"
         inkscape:label="i"
         style="fill:#ff9494;fill-opacity:1" />
    </g>
  </g>
</svg>
