<?xml version="1.0" encoding="UTF-8" standalone="no"?>
<!-- Created with Inkscape (http://www.inkscape.org/) -->

<svg
   width="1024"
   height="1024"
   viewBox="0 0 1024 1024"
   version="1.1"
   id="svg5"
   inkscape:version="1.2 (1:1.2+202206011327+fc4e4096c5)"
   sodipodi:docname="adaptive-icon.svg"
   inkscape:export-filename="adaptive-icon.png"
   inkscape:export-xdpi="96"
   inkscape:export-ydpi="96"
   xmlns:inkscape="http://www.inkscape.org/namespaces/inkscape"
   xmlns:sodipodi="http://sodipodi.sourceforge.net/DTD/sodipodi-0.dtd"
   xmlns="http://www.w3.org/2000/svg"
   xmlns:svg="http://www.w3.org/2000/svg">
  <sodipodi:namedview
     id="namedview7"
     pagecolor="#505050"
     bordercolor="#ffffff"
     borderopacity="1"
     inkscape:showpageshadow="0"
     inkscape:pageopacity="0"
     inkscape:pagecheckerboard="1"
     inkscape:deskcolor="#505050"
     inkscape:document-units="px"
     showgrid="false"
     inkscape:zoom="0.44433594"
     inkscape:cx="185.67033"
     inkscape:cy="514.25055"
     inkscape:window-width="1366"
     inkscape:window-height="736"
     inkscape:window-x="1366"
     inkscape:window-y="0"
     inkscape:window-maximized="1"
     inkscape:current-layer="layer1" />
  <defs
     id="defs2" />
  <g
     inkscape:label="Layer 1"
     inkscape:groupmode="layer"
     id="layer1">
    <g
       aria-label="CH"
       id="text186"
       style="font-size:360.635px;line-height:1.25;font-family:Pacifico;-inkscape-font-specification:'Pacifico, Normal';text-align:center;text-anchor:middle;fill:#ff9494;stroke-width:7.5132"
       inkscape:label="app title">
      <path
         d="m 359.45159,670.6794 q -42.91557,0 -74.65145,-15.50731 -31.73588,-15.86794 -48.68572,-44.71874 -16.94985,-28.8508 -16.94985,-67.07811 0,-53.01335 19.83493,-94.12574 20.19556,-41.11239 54.45588,-63.47176 34.26033,-22.72001 76.09399,-22.72001 38.94858,0 59.14414,20.19556 20.19556,19.83493 20.19556,52.65271 0,21.99874 -7.93397,35.34224 -7.57333,13.34349 -21.99874,13.34349 -10.09778,0 -15.86794,-4.68825 -5.77016,-4.68826 -5.77016,-13.70413 0,-3.24572 1.44254,-11.90096 2.16381,-10.81905 2.16381,-17.31048 0,-32.81779 -34.98159,-32.81779 -23.80191,0 -45.44001,15.50731 -21.6381,15.5073 -34.9816,45.80065 -13.34349,29.9327 -13.34349,71.40573 0,43.2762 24.16254,67.07811 24.16255,23.44127 71.40573,23.44127 23.44128,0 47.24319,-5.77016 24.16255,-6.13079 53.37398,-18.39238 5.40953,-2.16381 9.01588,-2.16381 5.77016,0 8.65524,4.32762 2.88508,4.32762 2.88508,11.17968 0,21.99874 -23.80191,32.45716 -25.60509,11.17968 -53.37399,16.58921 -27.40826,5.04889 -52.29207,5.04889 z"
         id="path289"
         inkscape:label="C letter"
         style="fill:#ffffff" />
      <path
         d="m 794.73766,588.45461 q 4.68826,0 7.2127,4.32762 2.88508,4.32762 2.88508,11.90096 0,14.06476 -6.85206,22.35937 -35.70287,43.63684 -76.09399,43.63684 -34.9816,0 -55.89843,-27.04763 -20.91683,-27.04763 -20.91683,-77.53653 0,-12.26159 1.08191,-24.52318 -23.80191,4.32762 -51.93144,6.49143 -18.75302,1.44254 -25.60509,1.80318 -7.2127,36.78477 -20.19556,90.15875 -7.57334,31.37525 -28.8508,31.37525 -23.08064,0 -23.08064,-20.91683 0,-4.68826 1.80317,-12.98287 12.26159,-49.40699 19.47429,-83.66732 l -17.31048,0.72127 q -11.90095,0 -17.31048,-3.96698 -5.40952,-4.32762 -5.40952,-13.70413 0,-11.90096 6.85206,-17.31048 6.85207,-5.77016 22.72001,-6.49143 l 19.11365,-0.72127 q 9.37651,-50.84954 9.37651,-77.53653 0,-16.94985 -5.04889,-23.08064 -5.04889,-6.1308 -13.34349,-6.1308 -25.24445,0 -56.98033,42.1943 -4.68826,6.13079 -10.45842,6.13079 -5.04889,0 -8.65524,-4.68825 -3.60635,-4.68826 -3.60635,-11.90096 0,-11.17968 9.01588,-23.80191 15.86794,-21.99873 40.03048,-36.0635 24.16255,-14.4254 49.04636,-14.4254 23.44128,0 36.06351,16.22858 12.98286,15.86794 12.98286,49.76763 0,29.93271 -8.65524,81.14288 l 35.34223,-1.80318 q 22.72,-1.0819 38.94858,-3.60635 6.49143,-39.66985 19.83492,-74.29081 13.3435,-34.62096 33.17842,-56.25906 19.83493,-21.6381 44.35811,-21.6381 18.03175,0 28.49017,14.4254 10.45841,14.06476 10.45841,37.1454 0,89.43749 -91.24066,124.05845 -1.0819,14.4254 -1.0819,29.9327 0,37.86668 9.37651,53.73462 9.37651,15.86794 26.32635,15.86794 14.78604,0 27.04763,-7.57334 12.26159,-7.93397 27.7689,-26.68699 4.32762,-5.04889 9.73714,-5.04889 z M 746.05194,383.97456 q -7.93397,0 -16.94985,14.4254 -8.65524,14.4254 -16.58921,39.30922 -7.93397,24.88382 -12.62223,54.45589 28.8508,-11.90096 42.55494,-33.8997 13.70413,-21.99873 13.70413,-56.61969 0,-8.29461 -2.88508,-12.98286 -2.88508,-4.68826 -7.2127,-4.68826 z"
         id="path291"
         inkscape:label="H letter" />
    </g>
  </g>
</svg>
