<?xml version="1.0" encoding="UTF-8" standalone="no"?>
<!-- Created with Inkscape (http://www.inkscape.org/) -->

<svg
   width="1920"
   height="1080"
   viewBox="0 0 1920 1080"
   version="1.1"
   id="svg5"
   inkscape:version="1.2.1 (1:1.2.1+202210291244+9c6d41e410)"
   sodipodi:docname="darkLogo.svg"
   inkscape:export-filename="logo.png"
   inkscape:export-xdpi="96"
   inkscape:export-ydpi="96"
   xmlns:inkscape="http://www.inkscape.org/namespaces/inkscape"
   xmlns:sodipodi="http://sodipodi.sourceforge.net/DTD/sodipodi-0.dtd"
   xmlns="http://www.w3.org/2000/svg"
   xmlns:svg="http://www.w3.org/2000/svg">
  <sodipodi:namedview
     id="namedview7"
     pagecolor="#505050"
     bordercolor="#ffffff"
     borderopacity="1"
     inkscape:showpageshadow="0"
     inkscape:pageopacity="0"
     inkscape:pagecheckerboard="1"
     inkscape:deskcolor="#505050"
     inkscape:document-units="px"
     showgrid="false"
     inkscape:zoom="0.21851852"
     inkscape:cx="766.52542"
     inkscape:cy="496.52542"
     inkscape:window-width="1366"
     inkscape:window-height="708"
     inkscape:window-x="0"
     inkscape:window-y="28"
     inkscape:window-maximized="1"
     inkscape:current-layer="layer1" />
  <defs
     id="defs2" />
  <g
     inkscape:label="Layer 1"
     inkscape:groupmode="layer"
     id="layer1"
     style="display:inline">
    <g
       aria-label="tĭti"
       id="text404-6-3"
       style="font-size:352.231px;line-height:1.25;font-family:'Red Hat Mono';-inkscape-font-specification:'Red Hat Mono, @wght=400';font-variation-settings:'wght' 400;text-align:center;text-anchor:middle;fill:#ffffff;stroke-width:7.33816"
       inkscape:label="typography"
       transform="matrix(2.0219777,0,0,2.0219777,-75.252522,-495.25259)">
      <path
         d="m 227.92649,641.97324 q -28.88294,0 -44.38111,-12.32809 -15.14593,-12.68031 -15.14593,-36.63202 V 487.69607 h -58.82257 v -21.13386 h 58.82257 v -47.19896 l 25.71286,-5.98792 v 53.18688 h 79.25197 v 21.13386 h -79.25197 v 101.09029 q 0,16.20262 8.80578,23.24724 8.80577,7.04462 25.36063,7.04462 10.2147,0 21.13386,-2.11338 10.91916,-2.11339 23.9517,-7.04462 v 23.24724 q -11.62362,4.22677 -22.89501,6.34016 -11.27139,2.46562 -22.54278,2.46562 z"
         id="path1006-5"
         inkscape:label="t" />
      <path
         d="m 451.59263,641.97324 q -27.12179,0 -41.56326,-12.68032 Q 395.5879,616.61261 395.5879,591.25198 V 487.69607 h -63.75381 v -21.13386 h 89.46668 v 122.22415 q 0,16.20262 7.74908,23.24724 7.74908,7.04462 22.89501,7.04462 9.15801,0 18.66824,-1.76115 9.51024,-2.11339 21.13386,-6.69239 v 23.24724 q -10.2147,3.52231 -20.42939,5.6357 -9.86247,2.46562 -19.72494,2.46562 z M 408.97268,434.50919 q -21.48609,0 -36.27979,-11.62363 -14.7937,-11.97585 -19.72494,-32.75748 l 17.96378,-4.22677 q 8.10132,32.40525 38.04095,32.40525 14.44147,0 23.95171,-8.45354 9.86247,-8.45355 13.73701,-23.95171 l 17.61155,4.22677 q -4.57901,20.78163 -19.37271,32.75748 -14.7937,11.62363 -35.92756,11.62363 z"
         id="path1008-6"
         inkscape:label="i" />
      <path
         d="m 650.6026,641.97324 q -28.88294,0 -44.3811,-12.32809 -15.14593,-12.68031 -15.14593,-36.63202 V 487.69607 h -58.82258 v -21.13386 h 58.82258 v -47.19896 l 25.71286,-5.98792 v 53.18688 h 79.25197 v 21.13386 h -79.25197 v 101.09029 q 0,16.20262 8.80577,23.24724 8.80578,7.04462 25.36063,7.04462 10.2147,0 21.13386,-2.11338 10.91916,-2.11339 23.95171,-7.04462 v 23.24724 q -11.62362,4.22677 -22.89501,6.34016 -11.27139,2.46562 -22.54279,2.46562 z"
         id="path1010-2"
         inkscape:label="t"
         style="fill:#ff9494;fill-opacity:1" />
      <path
         d="m 831.29655,425.70341 q -9.158,0 -15.85039,-6.34016 -6.34016,-6.69239 -6.34016,-15.49816 0,-9.15801 6.34016,-15.49816 6.69239,-6.34016 15.85039,-6.34016 9.15801,0 15.49816,6.34016 6.69239,6.34015 6.69239,15.49816 0,8.80577 -6.69239,15.49816 -6.34015,6.34016 -15.49816,6.34016 z m 42.97218,216.26983 q -27.12178,0 -41.56325,-12.68032 Q 818.264,616.61261 818.264,591.25198 V 487.69607 h -63.7538 v -21.13386 h 89.46667 v 122.22415 q 0,16.20262 7.74908,23.24724 7.74908,7.04462 22.89501,7.04462 9.15801,0 18.66824,-1.76115 9.51024,-2.11339 21.13386,-6.69239 v 23.24724 q -10.21469,3.52231 -20.42939,5.6357 -9.86247,2.46562 -19.72494,2.46562 z"
         id="path1012-9"
         inkscape:label="i"
         style="fill:#ff9494;fill-opacity:1" />
    </g>
  </g>
</svg>
