<?xml version="1.0" encoding="UTF-8" standalone="no"?>
<!-- Created with Inkscape (http://www.inkscape.org/) -->

<svg
   width="1024"
   height="1024"
   viewBox="0 0 1024 1024"
   version="1.1"
   id="svg5"
   inkscape:version="1.2 (1:1.2+202206011327+fc4e4096c5)"
   sodipodi:docname="icon.svg"
   inkscape:export-filename="icon.png"
   inkscape:export-xdpi="96"
   inkscape:export-ydpi="96"
   xmlns:inkscape="http://www.inkscape.org/namespaces/inkscape"
   xmlns:sodipodi="http://sodipodi.sourceforge.net/DTD/sodipodi-0.dtd"
   xmlns="http://www.w3.org/2000/svg"
   xmlns:svg="http://www.w3.org/2000/svg">
  <sodipodi:namedview
     id="namedview7"
     pagecolor="#505050"
     bordercolor="#ffffff"
     borderopacity="1"
     inkscape:showpageshadow="0"
     inkscape:pageopacity="0"
     inkscape:pagecheckerboard="1"
     inkscape:deskcolor="#505050"
     inkscape:document-units="px"
     showgrid="false"
     inkscape:zoom="0.4609375"
     inkscape:cx="333.01695"
     inkscape:cy="515.25424"
     inkscape:window-width="1366"
     inkscape:window-height="736"
     inkscape:window-x="1366"
     inkscape:window-y="0"
     inkscape:window-maximized="1"
     inkscape:current-layer="layer1" />
  <defs
     id="defs2" />
  <g
     inkscape:groupmode="layer"
     id="layer2"
     inkscape:label="background">
    <rect
       style="fill:#000000;stroke-width:104.06;stroke-opacity:0"
       id="rect275"
       width="1024"
       height="1024"
       x="0"
       y="0"
       inkscape:label="background color" />
  </g>
  <g
     inkscape:label="Layer 1"
     inkscape:groupmode="layer"
     id="layer1">
    <g
       aria-label="CH"
       id="text63"
       style="font-size:549.718px;line-height:1.25;font-family:Pacifico;-inkscape-font-specification:'Pacifico, Normal';text-align:center;text-anchor:middle;fill:#ff9494;stroke-width:11.4525"
       inkscape:label="app title">
      <path
         d="m 279.46958,753.87591 q -65.41644,0 -113.79163,-23.63788 Q 117.30277,706.05044 91.466021,662.073 65.629274,618.09556 65.629274,559.82545 q 0,-80.80855 30.234491,-143.4764 30.784205,-62.66786 83.007425,-96.75037 52.22321,-34.63224 115.9905,-34.63224 59.36954,0 90.15375,30.78421 30.78421,30.23449 30.78421,80.25883 0,33.5328 -12.09379,53.87237 -11.54408,20.33956 -33.5328,20.33956 -15.39211,0 -24.1876,-7.14633 -8.79548,-7.14634 -8.79548,-20.88929 0,-4.94746 2.19887,-18.14069 3.29831,-16.49154 3.29831,-26.38647 0,-50.02434 -53.32265,-50.02434 -36.28139,0 -69.26447,23.63788 -32.98308,23.63787 -53.32265,69.81419 -20.33957,45.62659 -20.33957,108.84416 0,65.96617 36.83111,102.24756 36.83111,35.73167 108.84417,35.73167 35.73167,0 72.01306,-8.79549 36.83111,-9.34521 81.35826,-28.03562 8.24577,-3.29831 13.74295,-3.29831 8.79549,0 13.19324,6.59662 4.39774,6.59661 4.39774,17.04126 0,33.5328 -36.28139,49.47462 -39.02998,17.04126 -81.35826,25.28703 -41.77857,7.69605 -79.70912,7.69605 z"
         id="path291"
         inkscape:label="C letter"
         style="fill:#ffffff" />
      <path
         d="m 942.97863,628.5402 q 7.14633,0 10.99436,6.59662 4.39774,6.59661 4.39774,18.14069 0,21.439 -10.44464,34.08252 -54.42208,66.51588 -115.9905,66.51588 -53.32265,0 -85.20629,-41.22885 -31.88365,-41.22885 -31.88365,-118.18938 0,-18.69041 1.64915,-37.38082 -36.28139,6.59662 -79.15939,9.89492 -28.58534,2.19888 -39.02998,2.74859 -10.99436,56.07124 -30.78421,137.42951 -11.54408,47.82547 -43.97744,47.82547 -35.18195,0 -35.18195,-31.88365 0,-7.14633 2.74859,-19.78985 18.69041,-75.31137 29.68477,-127.53458 l -26.38646,1.09944 q -18.1407,0 -26.38647,-6.0469 -8.24577,-6.59662 -8.24577,-20.88929 0,-18.14069 10.44464,-26.38646 10.44464,-8.79549 34.63224,-9.89492 l 29.13505,-1.09944 q 14.29267,-77.51024 14.29267,-118.18937 0,-25.83675 -7.69605,-35.18196 -7.69605,-9.3452 -20.33957,-9.3452 -38.48026,0 -86.85544,64.317 -7.14634,9.34521 -15.94183,9.34521 -7.69605,0 -13.19323,-7.14633 -5.49718,-7.14634 -5.49718,-18.1407 0,-17.04126 13.74295,-36.28139 24.18759,-33.5328 61.0187,-54.9718 36.83111,-21.98872 74.76165,-21.98872 35.73167,0 54.9718,24.73731 19.78985,24.18759 19.78985,75.86109 0,45.62659 -13.19323,123.68655 l 53.87236,-2.74859 q 34.63224,-1.64915 59.36955,-5.49718 9.89492,-60.46898 30.23449,-113.24191 20.33957,-52.77293 50.57406,-85.75601 30.23449,-32.98308 67.61532,-32.98308 27.4859,0 43.42772,21.98872 15.94182,21.439 15.94182,56.62095 0,136.33007 -139.07866,189.103 -1.64915,21.98872 -1.64915,45.6266 0,57.72039 14.29267,81.90798 14.29267,24.1876 40.12941,24.1876 22.53844,0 41.22885,-11.54408 18.69042,-12.0938 42.32829,-40.67914 6.59662,-7.69605 14.84239,-7.69605 z M 868.76669,316.85009 q -12.09379,0 -25.83674,21.98872 -13.19323,21.98872 -25.28703,59.91926 -12.0938,37.93054 -19.24013,83.00742 43.97744,-18.14069 64.86672,-51.67349 20.88929,-33.5328 20.88929,-86.30573 0,-12.64352 -4.39774,-19.78985 -4.39775,-7.14633 -10.99437,-7.14633 z"
         id="path293"
         inkscape:label="H letter" />
    </g>
  </g>
</svg>
