<?xml version="1.0" encoding="UTF-8" standalone="no"?>
<!-- Created with Inkscape (http://www.inkscape.org/) -->

<svg
   width="1920"
   height="1080"
   viewBox="0 0 1920 1080"
   version="1.1"
   id="svg381"
   inkscape:version="1.2 (1:1.2.1+202207142221+cd75a1ee6d)"
   sodipodi:docname="darkLogo.svg"
   xmlns:inkscape="http://www.inkscape.org/namespaces/inkscape"
   xmlns:sodipodi="http://sodipodi.sourceforge.net/DTD/sodipodi-0.dtd"
   xmlns="http://www.w3.org/2000/svg"
   xmlns:svg="http://www.w3.org/2000/svg">
  <sodipodi:namedview
     id="namedview383"
     pagecolor="#505050"
     bordercolor="#ffffff"
     borderopacity="1"
     inkscape:showpageshadow="0"
     inkscape:pageopacity="0"
     inkscape:pagecheckerboard="1"
     inkscape:deskcolor="#505050"
     inkscape:document-units="px"
     showgrid="false"
     inkscape:zoom="0.22"
     inkscape:cx="913.63636"
     inkscape:cy="579.54545"
     inkscape:window-width="1366"
     inkscape:window-height="736"
     inkscape:window-x="1366"
     inkscape:window-y="0"
     inkscape:window-maximized="1"
     inkscape:current-layer="layer1" />
  <defs
     id="defs378" />
  <g
     inkscape:label="Layer 1"
     inkscape:groupmode="layer"
     id="layer1">
    <g
       aria-label="CatHot"
       id="g1525"
       style="font-size:511.195px;line-height:1.25;font-family:Pacifico;-inkscape-font-specification:'Pacifico, Normal';text-align:center;text-anchor:middle;display:inline;stroke-width:10.6499"
       inkscape:label="logo"
       transform="matrix(1.0591356,0,0,1.0591356,-8.936741,-19.230042)">
      <path
         d="m 241.59494,752.93189 q -60.83221,0 -105.81737,-21.98138 -44.985161,-22.49259 -69.011327,-63.38819 -24.026165,-40.8956 -24.026165,-95.08227 0,-75.14566 28.115726,-133.42189 28.62692,-58.27623 77.190446,-89.97033 48.56353,-32.20528 107.86215,-32.20528 55.20906,0 83.83598,28.62692 28.62692,28.11573 28.62692,74.63447 0,31.1829 -11.24629,50.09711 -10.7351,18.91422 -31.1829,18.91422 -14.31346,0 -22.49258,-6.64554 -8.17912,-6.64553 -8.17912,-19.42541 0,-4.60075 2.04478,-16.86943 3.06717,-15.33585 3.06717,-24.53736 0,-46.51875 -49.58591,-46.51875 -33.73887,0 -64.41057,21.98139 -30.67171,21.98138 -49.58592,64.92176 -18.91422,42.42919 -18.91422,101.21661 0,61.3434 34.25007,95.08227 34.25007,33.22768 101.21661,33.22768 33.22768,0 66.96655,-8.17912 34.25006,-8.69032 75.65686,-26.07095 7.66792,-3.06717 12.77987,-3.06717 8.17912,0 12.26868,6.13434 4.08956,6.13434 4.08956,15.84705 0,31.18289 -33.73887,46.00755 -36.29484,15.84705 -75.65686,23.51497 -38.85082,7.15673 -74.12327,7.15673 z"
         id="path1513"
         inkscape:label="C"
         style="fill:#000000" />
      <path
         d="m 448.11717,752.93189 q -31.69409,0 -50.6083,-23.00377 -18.91422,-23.00378 -18.91422,-60.32102 0,-40.8956 18.91422,-77.19044 18.91421,-36.80604 50.09711,-58.78743 31.69409,-22.49258 66.96654,-22.49258 11.24629,0 14.82466,4.60076 4.08956,4.08956 6.64553,15.33585 10.7351,-2.04478 22.49259,-2.04478 25.04855,0 25.04855,17.89182 0,10.7351 -7.66792,51.1195 -11.75749,58.78743 -11.75749,81.7912 0,7.66793 3.57837,12.26868 4.08956,4.60076 10.2239,4.60076 9.7127,0 23.51497,-12.26868 13.80226,-12.77988 37.31723,-40.8956 6.13434,-7.15673 13.80227,-7.15673 6.64553,0 10.2239,6.13434 4.08956,6.13434 4.08956,16.86943 0,20.4478 -9.71271,31.69409 -20.95899,26.07095 -44.47396,43.96278 -23.51497,17.89182 -45.49636,17.89182 -16.86943,0 -31.1829,-11.24629 -13.80226,-11.75748 -20.95899,-31.69409 -26.58214,42.94038 -66.96655,42.94038 z m 18.40302,-51.6307 q 11.24629,0 21.47019,-13.29107 10.2239,-13.29107 14.82466,-35.27245 l 18.91421,-94.05988 q -21.47019,0.51119 -39.87321,16.35824 -17.89182,15.33585 -28.62692,40.8956 -10.73509,25.55975 -10.73509,54.18667 0,15.84704 6.13434,23.51497 6.64553,7.66792 17.89182,7.66792 z"
         id="path1515"
         inkscape:label="a"
         style="fill:#000000" />
      <path
         d="m 853.49448,636.37943 q 6.64554,0 10.2239,6.13434 4.08956,6.13434 4.08956,16.86943 0,20.4478 -9.7127,31.69409 -21.98139,27.09334 -48.05233,44.47397 -26.07095,17.38063 -59.80982,17.38063 -104.28378,0 -104.28378,-146.71297 0,-22.49258 1.53359,-45.49635 h -19.93661 q -15.33585,0 -20.959,-5.62315 -5.11195,-5.62314 -5.11195,-17.89182 0,-28.62692 23.00378,-28.62692 h 29.13812 q 8.69031,-56.23145 26.58214,-102.7502 17.89182,-46.51875 42.94038,-74.12328 25.55975,-27.60453 54.69786,-27.60453 21.47019,0 33.73887,18.91422 12.26868,18.91421 12.26868,47.54114 0,79.23522 -66.45535,138.02265 h 57.25384 q 8.17912,0 11.75749,3.57836 3.57836,3.57837 3.57836,13.29107 0,35.27246 -57.76503,35.27246 h -62.36579 q -1.02239,25.55975 -1.02239,39.87321 0,53.16428 12.26868,74.63447 12.77987,21.47019 39.87321,21.47019 21.98138,0 38.85082,-13.29107 16.86943,-13.29107 39.87321,-39.87321 6.13434,-7.15673 13.80226,-7.15673 z M 764.03536,353.17739 q -7.66793,0 -17.38063,19.42542 -9.20151,18.91421 -17.89183,53.16428 -8.17912,33.73887 -13.80226,75.14566 30.1605,-26.07094 44.98516,-58.27623 15.33585,-32.71648 15.33585,-59.29862 0,-30.16051 -11.24629,-30.16051 z"
         id="path1517"
         inkscape:label="t"
         style="fill:#000000" />
      <path
         d="m 1299.7675,636.37943 q 6.6455,0 10.2239,6.13434 4.0896,6.13434 4.0896,16.86943 0,19.93661 -9.7127,31.69409 -50.6084,61.8546 -107.8622,61.8546 -49.5859,0 -79.2352,-38.33962 -29.6493,-38.33963 -29.6493,-109.90693 0,-17.38063 1.5336,-34.76126 -33.7389,6.13434 -73.6121,9.20151 -26.58216,2.04478 -36.29487,2.55597 -10.2239,52.14189 -28.62692,127.79875 -10.73509,44.47397 -40.8956,44.47397 -32.71648,0 -32.71648,-29.64931 0,-6.64553 2.55597,-18.40302 17.38063,-70.03372 27.60453,-118.59724 l -24.53736,1.02239 q -16.86943,0 -24.53736,-5.62315 -7.66792,-6.13434 -7.66792,-19.42541 0,-16.86943 9.7127,-24.53736 9.71271,-8.17912 32.20529,-9.20151 l 27.09334,-1.02239 q 13.29107,-72.07849 13.29107,-109.90692 0,-24.02617 -7.15673,-32.71648 -7.15673,-8.69032 -18.91422,-8.69032 -35.78365,0 -80.76881,59.80982 -6.64554,8.69031 -14.82466,8.69031 -7.15673,0 -12.26868,-6.64553 -5.11195,-6.64554 -5.11195,-16.86944 0,-15.84704 12.77988,-33.73887 22.49258,-31.1829 56.74264,-51.1195 34.25007,-20.4478 69.52253,-20.4478 33.22767,0 51.1195,23.00377 18.40301,22.49258 18.40301,70.54492 0,42.42918 -12.26867,115.01887 l 50.09707,-2.55597 q 32.2053,-1.53359 55.2091,-5.11195 9.2015,-56.23145 28.1157,-105.30617 18.9142,-49.07473 47.03,-79.74643 28.1157,-30.6717 62.8769,-30.6717 25.5598,0 40.3845,20.4478 14.8246,19.93661 14.8246,52.65309 0,126.77636 -129.3323,175.85108 -1.5336,20.4478 -1.5336,42.42919 0,53.67547 13.2911,76.16805 13.291,22.49258 37.3172,22.49258 20.959,0 38.3396,-10.73509 17.3807,-11.24629 39.362,-37.82843 6.1344,-7.15673 13.8023,-7.15673 z m -69.0113,-289.84757 q -11.2463,0 -24.0262,20.4478 -12.2687,20.4478 -23.515,55.72026 -11.2463,35.27245 -17.8918,77.19044 40.8956,-16.86943 60.321,-48.05233 19.4254,-31.18289 19.4254,-80.25761 0,-11.75749 -4.0895,-18.40303 -4.0896,-6.64553 -10.2239,-6.64553 z"
         id="path1519"
         inkscape:label="H"
         style="fill:#ff9494;fill-opacity:1" />
      <path
         d="m 1599.8382,593.43905 q 6.6455,0 10.2239,6.64553 3.5783,6.64554 3.5783,16.86944 0,24.53736 -14.8246,29.13811 -30.6717,10.7351 -67.4778,12.26868 -9.7127,42.94038 -38.3396,69.01133 -28.6269,25.55975 -64.9218,25.55975 -30.6717,0 -52.653,-14.82465 -21.4702,-14.82466 -32.7165,-39.36202 -11.2463,-24.53736 -11.2463,-53.16428 0,-38.85082 14.8246,-69.01133 14.8247,-30.6717 40.8956,-47.54113 26.071,-17.38063 57.7651,-17.38063 38.8508,0 62.3658,27.09333 24.0261,26.58214 28.1157,65.94416 24.0262,-1.53359 57.2538,-10.2239 4.0896,-1.02239 7.1568,-1.02239 z m -167.672,105.30617 q 16.3582,0 28.1157,-13.29107 12.2687,-13.29107 16.3583,-38.33963 -15.8471,-10.73509 -24.5374,-28.11572 -8.1791,-17.38063 -8.1791,-36.80604 0,-8.17912 1.5336,-16.35824 h -2.556 q -20.4478,0 -34.2501,19.9366 -13.291,19.42541 -13.291,55.20906 0,28.11573 10.7351,42.94038 11.2462,14.82466 26.0709,14.82466 z"
         id="path1521"
         inkscape:label="o"
         style="fill:#ff9494;fill-opacity:1" />
      <path
         d="m 1666.8036,560.72257 q -1.0223,25.55975 -1.0223,39.87321 0,36.80604 3.5783,57.76503 4.0896,20.4478 12.7799,29.64931 9.2015,8.69032 25.0485,8.69032 8.1792,0 19.4255,-5.11195 11.2462,-5.11195 20.4478,-13.29107 5.6231,-5.11195 11.2462,-5.11195 6.1344,0 9.7128,7.15673 4.0895,6.64553 4.0895,16.35824 0,9.7127 -4.0895,18.91422 -3.5784,9.20151 -11.2463,15.33585 -26.5822,21.98138 -60.321,21.98138 -48.5636,0 -71.0562,-40.38441 -22.4925,-40.8956 -22.4925,-106.32856 0,-22.49258 1.5336,-45.49635 h -19.9367 q -15.3358,0 -20.9589,-5.62315 -5.112,-5.62314 -5.112,-17.89182 0,-28.62692 23.0038,-28.62692 h 29.1381 q 8.6903,-56.23145 26.5821,-102.7502 17.8919,-46.51875 42.9404,-74.12328 25.5598,-27.60453 54.6979,-27.60453 21.4702,0 33.7388,18.91422 12.2687,18.91421 12.2687,47.54114 0,79.23522 -66.4553,138.02265 h 57.2538 q 8.1791,0 11.7575,3.57836 3.5784,3.57837 3.5784,13.29107 0,35.27246 -57.7651,35.27246 z m 54.1867,-207.54518 q -7.6679,0 -17.3806,19.42542 -9.2015,18.91421 -17.8918,53.16428 -8.1792,33.73887 -13.8023,75.14566 30.1605,-26.07094 44.9852,-58.27623 15.3358,-32.71648 15.3358,-59.29862 0,-30.16051 -11.2463,-30.16051 z"
         id="path1523"
         inkscape:label="t"
         style="fill:#ff9494;fill-opacity:1" />
    </g>
  </g>
</svg>
