<?xml version="1.0" encoding="UTF-8" standalone="no"?>
<!-- Created with Inkscape (http://www.inkscape.org/) -->

<svg
   width="1242"
   height="2436"
   viewBox="0 0 328.61249 644.525"
   version="1.1"
   id="svg5"
   inkscape:version="1.2 (1:1.2.1+202207142221+cd75a1ee6d)"
   sodipodi:docname="splash.svg"
   inkscape:export-filename="splash.png"
   inkscape:export-xdpi="96"
   inkscape:export-ydpi="96"
   xmlns:inkscape="http://www.inkscape.org/namespaces/inkscape"
   xmlns:sodipodi="http://sodipodi.sourceforge.net/DTD/sodipodi-0.dtd"
   xmlns="http://www.w3.org/2000/svg"
   xmlns:svg="http://www.w3.org/2000/svg">
  <sodipodi:namedview
     id="namedview7"
     pagecolor="#505050"
     bordercolor="#ffffff"
     borderopacity="1"
     inkscape:showpageshadow="0"
     inkscape:pageopacity="0"
     inkscape:pagecheckerboard="1"
     inkscape:deskcolor="#505050"
     inkscape:document-units="px"
     showgrid="false"
     inkscape:zoom="0.19827586"
     inkscape:cx="620.34783"
     inkscape:cy="1218"
     inkscape:window-width="1366"
     inkscape:window-height="736"
     inkscape:window-x="1366"
     inkscape:window-y="0"
     inkscape:window-maximized="1"
     inkscape:current-layer="layer1"
     showguides="true" />
  <defs
     id="defs2" />
  <g
     inkscape:label="Layer 1"
     inkscape:groupmode="layer"
     id="layer1">
    <g
       aria-label="CatHot"
       id="text63"
       style="font-size:48.1633px;line-height:1.25;font-family:Pacifico;-inkscape-font-specification:'Pacifico, Normal';text-align:center;text-anchor:middle;fill:#ff9494;stroke-width:0.5017"
       inkscape:label="app title"
       transform="matrix(1.1548312,0,0,1.1548312,-25.439747,-49.896289)">
      <path
         d="m 100.87532,343.45435 q -5.731432,0 -9.969802,-2.07102 -4.23837,-2.11919 -6.502045,-5.97225 -2.263675,-3.85307 -2.263675,-8.95838 0,-7.08 2.648981,-12.57062 2.697145,-5.49061 7.272658,-8.47674 4.575514,-3.03429 10.162453,-3.03429 5.20164,0 7.89878,2.69715 2.69715,2.64898 2.69715,7.03184 0,2.93796 -1.05959,4.72 -1.01143,1.78205 -2.93796,1.78205 -1.34858,0 -2.11919,-0.62613 -0.77061,-0.62612 -0.77061,-1.8302 0,-0.43347 0.19265,-1.58939 0.28898,-1.4449 0.28898,-2.31184 0,-4.38286 -4.67184,-4.38286 -3.178777,0 -6.068575,2.07102 -2.889798,2.07102 -4.67184,6.11674 -1.782042,3.99755 -1.782042,9.53633 0,5.7796 3.226941,8.95838 3.226941,3.13061 9.536336,3.13061 3.13061,0 6.30939,-0.77061 3.22694,-0.81878 7.12817,-2.45633 0.72245,-0.28898 1.20408,-0.28898 0.77061,0 1.15592,0.57796 0.38531,0.57796 0.38531,1.49306 0,2.93796 -3.17878,4.3347 -3.4196,1.49306 -7.12817,2.21551 -3.66041,0.67429 -6.98368,0.67429 z"
         id="path289"
         inkscape:label="C"
         style="fill:#ffffff" />
      <path
         d="m 120.33324,343.45435 q -2.98612,0 -4.76817,-2.16735 -1.78204,-2.16735 -1.78204,-5.68327 0,-3.85306 1.78204,-7.27266 1.78205,-3.46776 4.72001,-5.53878 2.98612,-2.11918 6.30939,-2.11918 1.05959,0 1.39674,0.43347 0.3853,0.3853 0.62612,1.4449 1.01143,-0.19266 2.11918,-0.19266 2.36001,0 2.36001,1.68572 0,1.01143 -0.72245,4.81633 -1.10776,5.53878 -1.10776,7.70613 0,0.72245 0.33714,1.15592 0.38531,0.43347 0.96327,0.43347 0.9151,0 2.21551,-1.15592 1.30041,-1.20409 3.51592,-3.85307 0.57796,-0.67428 1.30041,-0.67428 0.62612,0 0.96327,0.57796 0.3853,0.57795 0.3853,1.58938 0,1.92654 -0.9151,2.98613 -1.97469,2.45633 -4.19021,4.14204 -2.21551,1.68572 -4.28653,1.68572 -1.58939,0 -2.93796,-1.05959 -1.30041,-1.10776 -1.9747,-2.98613 -2.50449,4.04572 -6.30939,4.04572 z m 1.73388,-4.8645 q 1.05959,0 2.02286,-1.25224 0.96326,-1.25225 1.39673,-3.32327 l 1.78205,-8.86205 q -2.02286,0.0482 -3.75674,1.54123 -1.68572,1.4449 -2.69715,3.85306 -1.01143,2.40817 -1.01143,5.10531 0,1.49307 0.57796,2.21552 0.62613,0.72244 1.68572,0.72244 z"
         id="path291"
         inkscape:label="a"
         style="fill:#ffffff" />
      <path
         d="m 158.52671,332.47312 q 0.62612,0 0.96326,0.57796 0.38531,0.57795 0.38531,1.58938 0,1.92654 -0.9151,2.98613 -2.07103,2.55265 -4.52735,4.19021 -2.45633,1.63755 -5.63511,1.63755 -9.82531,0 -9.82531,-13.82287 0,-2.11918 0.14449,-4.28653 h -1.87837 q -1.4449,0 -1.9747,-0.5298 -0.48163,-0.5298 -0.48163,-1.68571 0,-2.69715 2.16735,-2.69715 h 2.74531 q 0.81877,-5.29796 2.50449,-9.68082 1.68571,-4.38286 4.04571,-6.98368 2.40817,-2.60082 5.15348,-2.60082 2.02286,0 3.17877,1.78204 1.15592,1.78205 1.15592,4.47919 0,7.46531 -6.26122,13.00409 h 5.39428 q 0.77062,0 1.10776,0.33714 0.33714,0.33715 0.33714,1.25225 0,3.32327 -5.44245,3.32327 h -5.87592 q -0.0963,2.40816 -0.0963,3.75673 0,5.00899 1.15592,7.03185 1.20408,2.02286 3.75674,2.02286 2.07102,0 3.66041,-1.25225 1.58939,-1.25225 3.75674,-3.75674 0.57796,-0.67428 1.30041,-0.67428 z m -8.42858,-26.68247 q -0.72245,0 -1.63755,1.8302 -0.86694,1.78205 -1.68572,5.00899 -0.77061,3.17877 -1.30041,7.08 2.84164,-2.45633 4.23837,-5.49061 1.4449,-3.08246 1.4449,-5.58695 0,-2.84163 -1.05959,-2.84163 z"
         id="path293"
         inkscape:label="t"
         style="fill:#ffffff" />
      <path
         d="m 200.57324,332.47312 q 0.62613,0 0.96327,0.57796 0.38531,0.57795 0.38531,1.58938 0,1.87837 -0.91511,2.98613 -4.76816,5.82776 -10.16245,5.82776 -4.67184,0 -7.46531,-3.61225 -2.79348,-3.61225 -2.79348,-10.35511 0,-1.63755 0.14449,-3.2751 -3.17877,0.57796 -6.93551,0.86694 -2.50449,0.19265 -3.4196,0.24081 -0.96326,4.91266 -2.69714,12.04083 -1.01143,4.1902 -3.85306,4.1902 -3.08246,0 -3.08246,-2.79347 0,-0.62612 0.24082,-1.73388 1.63755,-6.59837 2.60082,-11.17388 l -2.31184,0.0963 q -1.58939,0 -2.31184,-0.5298 -0.72245,-0.57796 -0.72245,-1.83021 0,-1.58939 0.91511,-2.31183 0.9151,-0.77062 3.03428,-0.86694 l 2.55266,-0.0963 q 1.25224,-6.79103 1.25224,-10.35511 0,-2.26368 -0.67428,-3.08245 -0.67429,-0.81878 -1.78204,-0.81878 -3.37144,0 -7.60981,5.63511 -0.62612,0.81877 -1.39673,0.81877 -0.67429,0 -1.15592,-0.62612 -0.48163,-0.62612 -0.48163,-1.58939 0,-1.49306 1.20408,-3.17877 2.11918,-2.93797 5.34613,-4.81633 3.22694,-1.92654 6.5502,-1.92654 3.13062,0 4.81633,2.16735 1.73388,2.11919 1.73388,6.64654 0,3.99755 -1.15592,10.83674 l 4.72001,-0.24082 q 3.03428,-0.14449 5.20163,-0.48163 0.86694,-5.29796 2.64898,-9.92164 1.78205,-4.62368 4.43103,-7.51347 2.64898,-2.8898 5.92408,-2.8898 2.40817,0 3.8049,1.92653 1.39674,1.87837 1.39674,4.96082 0,11.9445 -12.18531,16.56817 -0.14449,1.92654 -0.14449,3.99756 0,5.05714 1.25224,7.17633 1.25225,2.11919 3.51592,2.11919 1.9747,0 3.61225,-1.01143 1.63755,-1.0596 3.70857,-3.56409 0.57796,-0.67428 1.30041,-0.67428 z m -6.50204,-27.3086 q -1.05959,0 -2.26368,1.92654 -1.15592,1.92653 -2.21551,5.2498 -1.05959,3.32326 -1.68571,7.27265 3.85306,-1.58938 5.68326,-4.52735 1.83021,-2.93796 1.83021,-7.56163 0,-1.10776 -0.38531,-1.73388 -0.3853,-0.62613 -0.96326,-0.62613 z"
         id="path295"
         inkscape:label="H" />
      <path
         d="m 228.84502,328.4274 q 0.62612,0 0.96327,0.62612 0.33714,0.62612 0.33714,1.58939 0,2.31184 -1.39674,2.74531 -2.8898,1.01143 -6.35755,1.15592 -0.91511,4.04571 -3.61225,6.50204 -2.69715,2.40817 -6.11674,2.40817 -2.8898,0 -4.96082,-1.39674 -2.02286,-1.39673 -3.08245,-3.70857 -1.05959,-2.31184 -1.05959,-5.00898 0,-3.66042 1.39673,-6.50205 1.39674,-2.8898 3.85307,-4.47919 2.45633,-1.63755 5.44245,-1.63755 3.66041,0 5.87592,2.55266 2.26368,2.50449 2.64898,6.21306 2.26368,-0.14449 5.39429,-0.96326 0.38531,-0.0963 0.67429,-0.0963 z m -15.79756,9.92164 q 1.54122,0 2.64898,-1.25225 1.15592,-1.25224 1.54122,-3.61225 -1.49306,-1.01142 -2.31183,-2.64898 -0.77062,-1.63755 -0.77062,-3.46775 0,-0.77062 0.14449,-1.54123 h -0.24081 q -1.92654,0 -3.22694,1.87837 -1.25225,1.8302 -1.25225,5.20164 0,2.64898 1.01143,4.04571 1.05959,1.39674 2.45633,1.39674 z"
         id="path297"
         inkscape:label="o" />
      <path
         d="m 235.15431,325.34495 q -0.0963,2.40816 -0.0963,3.75673 0,3.46776 0.33715,5.44246 0.3853,1.92653 1.20408,2.79347 0.86694,0.81878 2.36,0.81878 0.77061,0 1.83021,-0.48164 1.05959,-0.48163 1.92653,-1.25224 0.52979,-0.48164 1.05959,-0.48164 0.57796,0 0.9151,0.67429 0.38531,0.62612 0.38531,1.54123 0,0.9151 -0.38531,1.78204 -0.33714,0.86694 -1.05959,1.4449 -2.50449,2.07102 -5.68327,2.07102 -4.57551,0 -6.6947,-3.8049 -2.11918,-3.85307 -2.11918,-10.01797 0,-2.11918 0.14449,-4.28653 h -1.87837 q -1.4449,0 -1.9747,-0.5298 -0.48163,-0.5298 -0.48163,-1.68571 0,-2.69715 2.16735,-2.69715 h 2.74531 q 0.81877,-5.29796 2.50449,-9.68082 1.68571,-4.38286 4.04572,-6.98368 2.40816,-2.60082 5.15347,-2.60082 2.02286,0 3.17878,1.78204 1.15592,1.78205 1.15592,4.47919 0,7.46531 -6.26123,13.00409 h 5.39429 q 0.77061,0 1.10775,0.33714 0.33715,0.33715 0.33715,1.25225 0,3.32327 -5.44246,3.32327 z m 5.10531,-19.5543 q -0.72245,0 -1.63755,1.8302 -0.86694,1.78205 -1.68572,5.00899 -0.77061,3.17877 -1.30041,7.08 2.84164,-2.45633 4.23837,-5.49061 1.4449,-3.08246 1.4449,-5.58695 0,-2.84163 -1.05959,-2.84163 z"
         id="path299"
         inkscape:label="t" />
    </g>
    <g
       aria-label="ÐarkÖs"
       id="text851"
       style="font-size:30.0717px;line-height:1.25;font-family:Eczar;-inkscape-font-specification:'Eczar, Normal';font-variation-settings:'wght' 500;text-align:center;text-anchor:middle;fill:#ffffff;stroke-width:0.405755"
       transform="matrix(0.55376653,0,0,0.55376653,73.318951,285.53669)"
       inkscape:label="DarkOs">
      <path
         d="m 115.8157,599.48599 -0.18043,-0.93222 1.29309,-1.29308 h 9.68308 l 0.18043,0.93222 -1.29308,1.29308 z m 5.65348,8.42008 -0.18043,-2.91696 q 0.99237,0.36086 1.83438,0.51122 0.87208,0.15036 1.65394,0.15036 1.62387,0 2.82674,-0.63151 1.20287,-0.6315 1.98473,-1.74415 0.78187,-1.11266 1.14273,-2.46588 0.39093,-1.3833 0.39093,-2.79667 0,-1.74416 -0.51122,-3.30789 -0.51122,-1.56373 -1.3833,-2.79667 -0.87208,-1.23294 -2.04487,-1.86444 l -5.38284,0.48114 -5.35276,-2.28544 q 2.34559,-0.12029 4.66111,-0.18043 2.31552,-0.0602 4.63104,-0.0602 2.25538,0 3.99954,0.87208 1.74416,0.84201 2.91695,2.25538 1.20287,1.41337 1.83438,3.1876 0.6315,1.77423 0.6315,3.6086 0,1.89452 -0.60143,3.69882 -0.60143,1.77423 -1.86445,3.1876 -1.23293,1.41337 -3.15752,2.25538 -1.92459,0.84201 -4.60097,0.84201 z m -5.29262,0 -0.18043,-0.9623 q 0.69165,-0.39093 1.44344,-0.69165 0.7518,-0.30071 1.53366,-0.54129 l 0.0301,2.19524 z m 2.37567,0 v -19.63682 h 3.66875 v 19.63682 z m 1.02244,-17.86259 -3.15753,-0.30072 0.0301,-1.50358 h 3.09738 z"
         id="path1459"
         inkscape:label="D" />
      <path
         d="m 147.27066,608.35714 q -0.42101,0 -0.9623,-0.36086 -0.51122,-0.36086 -0.96229,-0.93222 -0.45108,-0.57136 -0.69165,-1.23294 l -0.12029,-0.33079 v -7.18714 q 0,-1.41336 -0.36086,-2.10501 -0.36086,-0.69165 -1.08258,-1.05251 -0.72172,0.0301 -1.53366,0.18043 -0.81193,0.12028 -1.29308,0.30071 l -0.421,3.1876 -2.04488,0.0902 q -0.36086,-0.84201 -0.57136,-1.86445 -0.18043,-1.05251 -0.18043,-2.04487 0.78186,-0.39093 1.77423,-0.75179 0.99236,-0.36086 2.0148,-0.63151 1.05251,-0.30072 1.92459,-0.45108 0.87208,-0.18043 1.3833,-0.18043 0.72172,0 1.41337,0.33079 0.69165,0.30072 1.26301,0.81194 0.57136,0.48115 0.87208,0.99236 0.24057,0.39094 0.30072,0.99237 0.0601,0.60143 0.0601,2.10502 v 6.73606 q 0,0.33079 0.2105,0.48115 0.24057,0.15036 0.57136,0.15036 0.33079,0 0.69165,-0.0602 0.39093,-0.0601 0.75179,-0.15036 l 0.36087,1.32316 z m -5.77377,-0.0601 q -1.68402,0.2105 -2.79667,-0.33079 -1.11265,-0.54129 -1.65394,-1.44344 -0.54129,-0.93222 -0.54129,-1.83437 0,-0.90216 0.51122,-1.80431 0.51121,-0.90215 1.68401,-1.53365 l 6.64585,-0.18043 -0.0902,1.71408 -0.60143,-0.0301 q -0.7518,-0.0601 -1.56373,-0.0301 -0.78187,0.0301 -1.47351,0.2105 -0.66158,0.15036 -1.11266,0.54129 -0.421,0.36086 -0.421,0.99237 0,0.36086 0.18043,0.75179 0.18043,0.36086 0.51122,0.60143 0.78186,0 1.5938,-0.2105 0.81193,-0.2105 1.53365,-0.48114 0.72173,-0.27065 1.14273,-0.45108 l 0.12029,1.26301 z"
         id="path1461"
         inkscape:label="a" />
      <path
         d="m 153.31502,607.90607 v -13.44205 l 2.19524,-1.26301 1.32315,1.23294 v 13.47212 z m 2.40574,-7.03678 -0.63151,-2.04488 4.87162,-5.17233 q 1.02244,-0.421 1.95466,-0.30072 0.93222,0.0902 1.65394,0.60144 0.0601,0.57136 0,1.26301 -0.0301,0.69165 -0.12028,1.41337 -0.0902,0.72172 -0.24058,1.44344 -0.15036,0.69165 -0.33079,1.29308 h -2.04487 l -0.42101,-3.36803 q -0.75179,0.42101 -1.5938,1.11266 -0.81193,0.69165 -1.62387,1.62387 -0.81193,0.93222 -1.47351,2.13509 z m -4.66111,-5.23248 -0.27065,-1.44344 q 1.02244,-0.45107 2.28545,-0.69165 1.26301,-0.27064 2.43581,-0.30071 l 0.24057,1.20286 -1.65394,1.29309 z m 0.18043,12.26926 -0.12029,-1.02244 q 0.6315,-0.33079 1.56373,-0.66158 0.96229,-0.33079 1.62387,-0.48115 l -0.36086,2.16517 z m 4.81147,0 0.27064,-2.31552 q 0.54129,0.0301 1.23294,0.18043 0.72172,0.12028 1.3833,0.30071 0.66158,0.15036 1.05251,0.39094 l -0.12029,1.44344 z"
         id="path1463"
         inkscape:label="r" />
      <path
         d="m 166.87733,607.90607 v -20.83969 l 2.16516,-1.29308 1.35323,1.20286 v 20.92991 z m 1.65394,-5.32269 -0.24057,-0.63151 3.54846,-1.95466 4.54083,-5.53319 2.04487,-1.26301 1.08258,1.68401 -5.80384,6.85635 z m 8.39001,5.68355 q -0.60144,-0.2105 -1.02244,-0.63151 -0.39093,-0.421 -0.90215,-1.17279 l -3.3981,-5.23248 2.94702,-1.32316 4.02961,5.7437 q 0.2105,0.30072 0.66158,0.36086 0.45107,0.0301 1.11265,-0.0601 l 0.33079,1.35322 z m -12.3294,-20.05783 -0.27065,-1.44344 q 1.02244,-0.421 2.28545,-0.66157 1.26301,-0.27065 2.43581,-0.33079 l 0.24057,1.23294 -1.65394,1.29308 z m 8.66065,7.42771 -0.30072,-1.44344 q 0.81194,-0.30071 1.77423,-0.51122 0.99237,-0.2105 1.95466,-0.33079 0.99237,-0.15035 1.74416,-0.15035 l -0.0301,1.41337 -1.35323,0.87208 z m -8.51029,12.26926 -0.12029,-1.02244 q 0.66158,-0.33079 1.5938,-0.66158 0.9623,-0.33079 1.62387,-0.48115 l -0.39093,2.16517 z m 3.99953,0 0.15036,-2.19524 q 0.81194,0.0902 1.65395,0.27065 0.842,0.18043 1.41337,0.48115 l -0.15036,1.44344 z"
         id="path1465"
         inkscape:label="k" />
      <path
         d="m 191.56618,608.5075 q -1.8043,0 -3.51839,-0.6315 -1.71409,-0.66158 -3.09738,-1.92459 -1.35323,-1.29309 -2.16517,-3.21768 -0.78186,-1.95466 -0.78186,-4.54082 0,-3.1876 1.23294,-5.56327 1.23294,-2.37566 3.33796,-3.66874 2.13509,-1.32316 4.7814,-1.32316 1.89452,0 3.6086,0.69165 1.74416,0.69165 3.06732,2.07495 1.35322,1.35322 2.13509,3.36803 0.78186,1.98473 0.78186,4.54082 0,2.58617 -0.78186,4.51076 -0.78187,1.92459 -2.13509,3.1876 -1.32316,1.23294 -3.00717,1.86445 -1.65395,0.6315 -3.45825,0.6315 z m 0.54129,-2.40574 q 0.51122,0 0.99237,-0.0601 0.51122,-0.0902 1.02244,-0.2105 1.29308,-0.90215 2.07494,-2.88688 0.78187,-1.98474 0.78187,-4.48069 0,-1.62387 -0.36086,-3.12745 -0.36086,-1.50359 -1.11266,-2.70646 -0.72172,-1.20286 -1.86444,-1.92459 -1.11265,-0.72172 -2.67638,-0.72172 -0.57137,0 -1.23294,0.12029 -0.63151,0.12029 -1.29309,0.36086 -0.72172,0.60144 -1.29308,1.68402 -0.57136,1.08258 -0.90215,2.52602 -0.30072,1.44344 -0.30072,3.03724 0,1.65394 0.36086,3.1876 0.39094,1.50359 1.14273,2.67638 0.75179,1.1728 1.89451,1.86445 1.1728,0.66157 2.7666,0.66157 z m 2.82674,-20.17811 q -1.62387,-0.48114 -2.28545,-1.86444 0.0902,-0.93222 0.63151,-1.56373 0.54129,-0.6315 1.29308,-1.02244 0.81194,0.30072 1.44344,0.87208 0.63151,0.57136 0.78187,1.35323 -0.45108,1.53366 -1.86445,2.2253 z m -6.52556,0 q -1.5938,-0.48114 -2.28545,-1.86444 0.0902,-0.93222 0.63151,-1.56373 0.57136,-0.6315 1.32315,-1.02244 0.78187,0.30072 1.41337,0.87208 0.63151,0.57136 0.81194,1.35323 -0.45108,1.53366 -1.89452,2.2253 z"
         id="path1467"
         inkscape:label="O" />
      <path
         d="m 207.47409,608.5075 q -1.26301,0 -2.70645,-0.39093 -1.41337,-0.36086 -2.91696,-1.20287 l 1.29308,-3.06731 q 1.1728,0.81193 2.67638,1.53365 1.50359,0.69165 3.09739,1.02244 0.36086,-0.27064 0.54129,-0.66158 0.18043,-0.421 0.18043,-0.87207 0,-0.78187 -0.54129,-1.32316 -0.51122,-0.54129 -1.35323,-0.96229 -0.842,-0.42101 -1.8043,-0.81194 -0.93222,-0.421 -1.77423,-0.96229 -0.81193,-0.54129 -1.35323,-1.32316 -0.54129,-0.78186 -0.54129,-1.92459 0,-1.41337 0.81194,-2.40573 0.84201,-1.02244 2.22531,-1.53366 1.38329,-0.51122 3.00717,-0.51122 1.08258,0 2.13509,0.24057 1.08258,0.24058 1.98473,0.69165 l -0.99237,2.49595 q -0.99236,-0.81193 -2.37566,-1.14272 -1.35323,-0.36086 -2.49595,-0.30072 -0.63151,0.33079 -0.84201,0.7518 -0.2105,0.421 -0.2105,0.81193 0,0.75179 0.54129,1.26301 0.54129,0.51122 1.3833,0.93223 0.842,0.421 1.8043,0.842 0.96229,0.42101 1.8043,0.99237 0.84201,0.54129 1.3833,1.35323 0.54129,0.81193 0.54129,2.0148 0,1.92459 -1.50359,3.1876 -1.50358,1.26301 -3.99953,1.26301 z m 2.49595,-10.46495 -0.72172,-3.93939 3.1876,-0.0602 q 0.0601,0.99237 -0.0601,2.01481 -0.12029,1.02244 -0.45108,1.98473 z"
         id="path1469"
         inkscape:label="s" />
    </g>
  </g>
</svg>
