<?xml version="1.0" encoding="UTF-8" standalone="no"?>
<!-- Created with Inkscape (http://www.inkscape.org/) -->

<svg
   width="1242"
   height="2436"
   viewBox="0 0 328.61249 644.525"
   version="1.1"
   id="svg5"
   inkscape:version="1.2 (1:1.2.1+202207142221+cd75a1ee6d)"
   sodipodi:docname="splash.svg"
   inkscape:export-filename="splash.png"
   inkscape:export-xdpi="96"
   inkscape:export-ydpi="96"
   xmlns:inkscape="http://www.inkscape.org/namespaces/inkscape"
   xmlns:sodipodi="http://sodipodi.sourceforge.net/DTD/sodipodi-0.dtd"
   xmlns="http://www.w3.org/2000/svg"
   xmlns:svg="http://www.w3.org/2000/svg">
  <sodipodi:namedview
     id="namedview7"
     pagecolor="#505050"
     bordercolor="#ffffff"
     borderopacity="1"
     inkscape:showpageshadow="0"
     inkscape:pageopacity="0"
     inkscape:pagecheckerboard="1"
     inkscape:deskcolor="#505050"
     inkscape:document-units="px"
     showgrid="false"
     inkscape:zoom="0.19827586"
     inkscape:cx="620.34783"
     inkscape:cy="1268.4348"
     inkscape:window-width="1366"
     inkscape:window-height="736"
     inkscape:window-x="1366"
     inkscape:window-y="0"
     inkscape:window-maximized="1"
     inkscape:current-layer="layer1" />
  <defs
     id="defs2" />
  <g
     inkscape:label="Layer 1"
     inkscape:groupmode="layer"
     id="layer1">
    <g
       aria-label="CatHot"
       id="text63"
       style="font-size:48.1633px;line-height:1.25;font-family:Pacifico;-inkscape-font-specification:'Pacifico, Normal';text-align:center;text-anchor:middle;fill:#ff9494;stroke-width:0.5017"
       inkscape:label="app title"
       transform="matrix(1.1548312,0,0,1.1548312,-25.439747,-49.896289)">
      <path
         d="m 100.87532,343.45435 q -5.731432,0 -9.969802,-2.07102 -4.23837,-2.11919 -6.502045,-5.97225 -2.263675,-3.85307 -2.263675,-8.95838 0,-7.08 2.648981,-12.57062 2.697145,-5.49061 7.272658,-8.47674 4.575514,-3.03429 10.162453,-3.03429 5.20164,0 7.89878,2.69715 2.69715,2.64898 2.69715,7.03184 0,2.93796 -1.05959,4.72 -1.01143,1.78205 -2.93796,1.78205 -1.34858,0 -2.11919,-0.62613 -0.77061,-0.62612 -0.77061,-1.8302 0,-0.43347 0.19265,-1.58939 0.28898,-1.4449 0.28898,-2.31184 0,-4.38286 -4.67184,-4.38286 -3.178777,0 -6.068575,2.07102 -2.889798,2.07102 -4.67184,6.11674 -1.782042,3.99755 -1.782042,9.53633 0,5.7796 3.226941,8.95838 3.226941,3.13061 9.536336,3.13061 3.13061,0 6.30939,-0.77061 3.22694,-0.81878 7.12817,-2.45633 0.72245,-0.28898 1.20408,-0.28898 0.77061,0 1.15592,0.57796 0.38531,0.57796 0.38531,1.49306 0,2.93796 -3.17878,4.3347 -3.4196,1.49306 -7.12817,2.21551 -3.66041,0.67429 -6.98368,0.67429 z"
         id="path289"
         inkscape:label="C"
         style="fill:#ffffff" />
      <path
         d="m 120.33324,343.45435 q -2.98612,0 -4.76817,-2.16735 -1.78204,-2.16735 -1.78204,-5.68327 0,-3.85306 1.78204,-7.27266 1.78205,-3.46776 4.72001,-5.53878 2.98612,-2.11918 6.30939,-2.11918 1.05959,0 1.39674,0.43347 0.3853,0.3853 0.62612,1.4449 1.01143,-0.19266 2.11918,-0.19266 2.36001,0 2.36001,1.68572 0,1.01143 -0.72245,4.81633 -1.10776,5.53878 -1.10776,7.70613 0,0.72245 0.33714,1.15592 0.38531,0.43347 0.96327,0.43347 0.9151,0 2.21551,-1.15592 1.30041,-1.20409 3.51592,-3.85307 0.57796,-0.67428 1.30041,-0.67428 0.62612,0 0.96327,0.57796 0.3853,0.57795 0.3853,1.58938 0,1.92654 -0.9151,2.98613 -1.97469,2.45633 -4.19021,4.14204 -2.21551,1.68572 -4.28653,1.68572 -1.58939,0 -2.93796,-1.05959 -1.30041,-1.10776 -1.9747,-2.98613 -2.50449,4.04572 -6.30939,4.04572 z m 1.73388,-4.8645 q 1.05959,0 2.02286,-1.25224 0.96326,-1.25225 1.39673,-3.32327 l 1.78205,-8.86205 q -2.02286,0.0482 -3.75674,1.54123 -1.68572,1.4449 -2.69715,3.85306 -1.01143,2.40817 -1.01143,5.10531 0,1.49307 0.57796,2.21552 0.62613,0.72244 1.68572,0.72244 z"
         id="path291"
         inkscape:label="a"
         style="fill:#ffffff" />
      <path
         d="m 158.52671,332.47312 q 0.62612,0 0.96326,0.57796 0.38531,0.57795 0.38531,1.58938 0,1.92654 -0.9151,2.98613 -2.07103,2.55265 -4.52735,4.19021 -2.45633,1.63755 -5.63511,1.63755 -9.82531,0 -9.82531,-13.82287 0,-2.11918 0.14449,-4.28653 h -1.87837 q -1.4449,0 -1.9747,-0.5298 -0.48163,-0.5298 -0.48163,-1.68571 0,-2.69715 2.16735,-2.69715 h 2.74531 q 0.81877,-5.29796 2.50449,-9.68082 1.68571,-4.38286 4.04571,-6.98368 2.40817,-2.60082 5.15348,-2.60082 2.02286,0 3.17877,1.78204 1.15592,1.78205 1.15592,4.47919 0,7.46531 -6.26122,13.00409 h 5.39428 q 0.77062,0 1.10776,0.33714 0.33714,0.33715 0.33714,1.25225 0,3.32327 -5.44245,3.32327 h -5.87592 q -0.0963,2.40816 -0.0963,3.75673 0,5.00899 1.15592,7.03185 1.20408,2.02286 3.75674,2.02286 2.07102,0 3.66041,-1.25225 1.58939,-1.25225 3.75674,-3.75674 0.57796,-0.67428 1.30041,-0.67428 z m -8.42858,-26.68247 q -0.72245,0 -1.63755,1.8302 -0.86694,1.78205 -1.68572,5.00899 -0.77061,3.17877 -1.30041,7.08 2.84164,-2.45633 4.23837,-5.49061 1.4449,-3.08246 1.4449,-5.58695 0,-2.84163 -1.05959,-2.84163 z"
         id="path293"
         inkscape:label="t"
         style="fill:#ffffff" />
      <path
         d="m 200.57324,332.47312 q 0.62613,0 0.96327,0.57796 0.38531,0.57795 0.38531,1.58938 0,1.87837 -0.91511,2.98613 -4.76816,5.82776 -10.16245,5.82776 -4.67184,0 -7.46531,-3.61225 -2.79348,-3.61225 -2.79348,-10.35511 0,-1.63755 0.14449,-3.2751 -3.17877,0.57796 -6.93551,0.86694 -2.50449,0.19265 -3.4196,0.24081 -0.96326,4.91266 -2.69714,12.04083 -1.01143,4.1902 -3.85306,4.1902 -3.08246,0 -3.08246,-2.79347 0,-0.62612 0.24082,-1.73388 1.63755,-6.59837 2.60082,-11.17388 l -2.31184,0.0963 q -1.58939,0 -2.31184,-0.5298 -0.72245,-0.57796 -0.72245,-1.83021 0,-1.58939 0.91511,-2.31183 0.9151,-0.77062 3.03428,-0.86694 l 2.55266,-0.0963 q 1.25224,-6.79103 1.25224,-10.35511 0,-2.26368 -0.67428,-3.08245 -0.67429,-0.81878 -1.78204,-0.81878 -3.37144,0 -7.60981,5.63511 -0.62612,0.81877 -1.39673,0.81877 -0.67429,0 -1.15592,-0.62612 -0.48163,-0.62612 -0.48163,-1.58939 0,-1.49306 1.20408,-3.17877 2.11918,-2.93797 5.34613,-4.81633 3.22694,-1.92654 6.5502,-1.92654 3.13062,0 4.81633,2.16735 1.73388,2.11919 1.73388,6.64654 0,3.99755 -1.15592,10.83674 l 4.72001,-0.24082 q 3.03428,-0.14449 5.20163,-0.48163 0.86694,-5.29796 2.64898,-9.92164 1.78205,-4.62368 4.43103,-7.51347 2.64898,-2.8898 5.92408,-2.8898 2.40817,0 3.8049,1.92653 1.39674,1.87837 1.39674,4.96082 0,11.9445 -12.18531,16.56817 -0.14449,1.92654 -0.14449,3.99756 0,5.05714 1.25224,7.17633 1.25225,2.11919 3.51592,2.11919 1.9747,0 3.61225,-1.01143 1.63755,-1.0596 3.70857,-3.56409 0.57796,-0.67428 1.30041,-0.67428 z m -6.50204,-27.3086 q -1.05959,0 -2.26368,1.92654 -1.15592,1.92653 -2.21551,5.2498 -1.05959,3.32326 -1.68571,7.27265 3.85306,-1.58938 5.68326,-4.52735 1.83021,-2.93796 1.83021,-7.56163 0,-1.10776 -0.38531,-1.73388 -0.3853,-0.62613 -0.96326,-0.62613 z"
         id="path295"
         inkscape:label="H" />
      <path
         d="m 228.84502,328.4274 q 0.62612,0 0.96327,0.62612 0.33714,0.62612 0.33714,1.58939 0,2.31184 -1.39674,2.74531 -2.8898,1.01143 -6.35755,1.15592 -0.91511,4.04571 -3.61225,6.50204 -2.69715,2.40817 -6.11674,2.40817 -2.8898,0 -4.96082,-1.39674 -2.02286,-1.39673 -3.08245,-3.70857 -1.05959,-2.31184 -1.05959,-5.00898 0,-3.66042 1.39673,-6.50205 1.39674,-2.8898 3.85307,-4.47919 2.45633,-1.63755 5.44245,-1.63755 3.66041,0 5.87592,2.55266 2.26368,2.50449 2.64898,6.21306 2.26368,-0.14449 5.39429,-0.96326 0.38531,-0.0963 0.67429,-0.0963 z m -15.79756,9.92164 q 1.54122,0 2.64898,-1.25225 1.15592,-1.25224 1.54122,-3.61225 -1.49306,-1.01142 -2.31183,-2.64898 -0.77062,-1.63755 -0.77062,-3.46775 0,-0.77062 0.14449,-1.54123 h -0.24081 q -1.92654,0 -3.22694,1.87837 -1.25225,1.8302 -1.25225,5.20164 0,2.64898 1.01143,4.04571 1.05959,1.39674 2.45633,1.39674 z"
         id="path297"
         inkscape:label="o" />
      <path
         d="m 235.15431,325.34495 q -0.0963,2.40816 -0.0963,3.75673 0,3.46776 0.33715,5.44246 0.3853,1.92653 1.20408,2.79347 0.86694,0.81878 2.36,0.81878 0.77061,0 1.83021,-0.48164 1.05959,-0.48163 1.92653,-1.25224 0.52979,-0.48164 1.05959,-0.48164 0.57796,0 0.9151,0.67429 0.38531,0.62612 0.38531,1.54123 0,0.9151 -0.38531,1.78204 -0.33714,0.86694 -1.05959,1.4449 -2.50449,2.07102 -5.68327,2.07102 -4.57551,0 -6.6947,-3.8049 -2.11918,-3.85307 -2.11918,-10.01797 0,-2.11918 0.14449,-4.28653 h -1.87837 q -1.4449,0 -1.9747,-0.5298 -0.48163,-0.5298 -0.48163,-1.68571 0,-2.69715 2.16735,-2.69715 h 2.74531 q 0.81877,-5.29796 2.50449,-9.68082 1.68571,-4.38286 4.04572,-6.98368 2.40816,-2.60082 5.15347,-2.60082 2.02286,0 3.17878,1.78204 1.15592,1.78205 1.15592,4.47919 0,7.46531 -6.26123,13.00409 h 5.39429 q 0.77061,0 1.10775,0.33714 0.33715,0.33715 0.33715,1.25225 0,3.32327 -5.44246,3.32327 z m 5.10531,-19.5543 q -0.72245,0 -1.63755,1.8302 -0.86694,1.78205 -1.68572,5.00899 -0.77061,3.17877 -1.30041,7.08 2.84164,-2.45633 4.23837,-5.49061 1.4449,-3.08246 1.4449,-5.58695 0,-2.84163 -1.05959,-2.84163 z"
         id="path299"
         inkscape:label="t" />
    </g>
    <g
       id="g372"
       transform="matrix(0.74450361,0,0,0.74450361,41.979655,164.01384)">
      <g
         id="g384"
         transform="translate(1.1129202e-8,18.291455)">
        <g
           aria-label="ÃarkOs"
           id="text372"
           style="font-size:31.0878px;line-height:1.25;font-family:Eczar;-inkscape-font-specification:'Eczar, @wght=500';font-variation-settings:'wght' 500;text-align:center;text-anchor:middle;fill:#ffffff;stroke-width:0.647664"
           inkscape:label="DarkOs"
           transform="matrix(0.92371698,0,0,0.92371698,12.533776,41.669057)">
          <path
             d="m 114.17725,588.16205 -0.18653,-0.96372 1.33678,-1.33677 h 10.01027 l 0.18652,0.96372 -1.33677,1.33677 z m 5.8445,8.70459 -0.18652,-3.01552 q 1.02589,0.37306 1.89635,0.52849 0.90155,0.15544 1.70983,0.15544 1.67874,0 2.92226,-0.65284 1.24351,-0.65284 2.05179,-1.80309 0.80828,-1.15025 1.18134,-2.5492 0.40414,-1.43004 0.40414,-2.89117 0,-1.80309 -0.52849,-3.41966 -0.5285,-1.61656 -1.43004,-2.89116 -0.90155,-1.2746 -2.11397,-1.92744 l -5.56472,0.4974 -5.53363,-2.36267 q 2.42485,-0.12435 4.81861,-0.18653 2.39376,-0.0622 4.78752,-0.0622 2.33159,0 4.13468,0.90154 1.80309,0.87046 3.01552,2.33159 1.24351,1.46112 1.89635,3.2953 0.65285,1.83418 0.65285,3.73054 0,1.95853 -0.62176,3.8238 -0.62176,1.83418 -1.92744,3.2953 -1.2746,1.46113 -3.26422,2.33159 -1.98962,0.87046 -4.75644,0.87046 z m -5.47145,0 -0.18653,-0.99481 q 0.71502,-0.40414 1.49222,-0.71502 0.77719,-0.31088 1.58548,-0.55958 l 0.0311,2.26941 z m 2.45594,0 v -20.30033 h 3.79271 v 20.30033 z m 1.05698,-18.46615 -3.26422,-0.31088 0.0311,-1.55439 h 3.20205 z"
             id="path350"
             inkscape:label="D" />
          <path
             d="m 146.69504,597.33296 q -0.43523,0 -0.99481,-0.37306 -0.52849,-0.37305 -0.99481,-0.96372 -0.46632,-0.59067 -0.71502,-1.2746 l -0.12435,-0.34197 v -7.42998 q 0,-1.46113 -0.37306,-2.17615 -0.37305,-0.71502 -1.11916,-1.08807 -0.7461,0.0311 -1.58547,0.18653 -0.83937,0.12435 -1.33678,0.31088 l -0.43523,3.2953 -2.11397,0.0933 q -0.37305,-0.87046 -0.59067,-1.92745 -0.18652,-1.08807 -0.18652,-2.11397 0.80828,-0.40414 1.83418,-0.77719 1.02589,-0.37306 2.08288,-0.65285 1.08807,-0.31087 1.98962,-0.46631 0.90154,-0.18653 1.43004,-0.18653 0.7461,0 1.46112,0.34197 0.71502,0.31087 1.30569,0.83937 0.59067,0.4974 0.90155,1.02589 0.2487,0.40414 0.31087,1.0259 0.0622,0.62176 0.0622,2.17615 v 6.96366 q 0,0.34197 0.21761,0.49741 0.24871,0.15544 0.59067,0.15544 0.34197,0 0.71502,-0.0622 0.40414,-0.0622 0.7772,-0.15544 l 0.37305,1.36787 z m -5.96886,-0.0622 q -1.74092,0.21761 -2.89117,-0.34197 -1.15024,-0.55958 -1.70982,-1.49221 -0.55958,-0.96372 -0.55958,-1.89636 0,-0.93263 0.52849,-1.86526 0.52849,-0.93264 1.74091,-1.58548 l 6.87041,-0.18653 -0.0933,1.77201 -0.62176,-0.0311 q -0.7772,-0.0622 -1.61657,-0.0311 -0.80828,0.0311 -1.5233,0.21761 -0.68393,0.15544 -1.15025,0.55959 -0.43523,0.37305 -0.43523,1.02589 0,0.37306 0.18653,0.7772 0.18653,0.37305 0.52849,0.62175 0.80829,0 1.64766,-0.21761 0.83937,-0.21762 1.58547,-0.49741 0.74611,-0.27979 1.18134,-0.46631 l 0.12435,1.30568 z"
             id="path352"
             inkscape:label="a" />
          <path
             d="m 152.94364,596.86664 v -13.89625 l 2.26941,-1.30569 1.36786,1.2746 v 13.92734 z m 2.48702,-7.27455 -0.65284,-2.11397 5.03622,-5.3471 q 1.05699,-0.43523 2.02071,-0.31088 0.96372,0.0933 1.70983,0.62176 0.0622,0.59067 0,1.30569 -0.0311,0.71502 -0.12435,1.46112 -0.0933,0.74611 -0.2487,1.49222 -0.15544,0.71502 -0.34197,1.33677 h -2.11397 l -0.43523,-3.48183 q -0.77719,0.43523 -1.64765,1.15025 -0.83937,0.71502 -1.67874,1.67874 -0.83937,0.96372 -1.52331,2.20723 z m -4.81861,-5.40927 -0.27979,-1.49222 q 1.05699,-0.46632 2.36268,-0.71502 1.30569,-0.27979 2.51811,-0.31088 l 0.2487,1.24352 -1.70983,1.33677 z m 0.18653,12.68382 -0.12435,-1.05699 q 0.65284,-0.34196 1.61657,-0.68393 0.99481,-0.34196 1.67874,-0.4974 l -0.37306,2.23832 z m 4.97405,0 0.27979,-2.39376 q 0.55958,0.0311 1.2746,0.18652 0.74611,0.12436 1.43004,0.31088 0.68393,0.15544 1.08807,0.40414 l -0.12435,1.49222 z"
             id="path354"
             inkscape:label="r" />
          <path
             d="m 166.9642,596.86664 v -21.54385 l 2.23832,-1.33677 1.39896,1.24351 v 21.63711 z m 1.70983,-5.50254 -0.2487,-0.65285 3.66836,-2.0207 4.69426,-5.72016 2.11397,-1.30569 1.11916,1.74092 -5.99995,7.08802 z m 8.6735,5.87559 q -0.62176,-0.21761 -1.05699,-0.65284 -0.40414,-0.43523 -0.93263,-1.21243 l -3.51292,-5.40927 3.0466,-1.36787 4.16577,5.93777 q 0.21761,0.31088 0.68393,0.37306 0.46632,0.0311 1.15025,-0.0622 l 0.34196,1.39895 z m -12.746,-20.73556 -0.27979,-1.49221 q 1.05699,-0.43523 2.36267,-0.68394 1.30569,-0.27979 2.51811,-0.34196 l 0.24871,1.2746 -1.70983,1.33677 z m 8.95329,7.67869 -0.31088,-1.49222 q 0.83937,-0.31088 1.83418,-0.52849 1.0259,-0.21762 2.02071,-0.34197 1.02589,-0.15544 1.80309,-0.15544 l -0.0311,1.46113 -1.39895,0.90155 z m -8.79785,12.68382 -0.12435,-1.05699 q 0.68393,-0.34196 1.64765,-0.68393 0.99481,-0.34196 1.67874,-0.4974 l -0.40414,2.23832 z m 4.13468,0 0.15544,-2.26941 q 0.83937,0.0933 1.70982,0.27979 0.87046,0.18653 1.46113,0.4974 l -0.15544,1.49222 z"
             id="path356"
             inkscape:label="k" />
          <path
             d="m 192.48727,597.48839 q -1.86526,0 -3.63727,-0.65284 -1.772,-0.68393 -3.20204,-1.98962 -1.39895,-1.33677 -2.23832,-3.32639 -0.80829,-2.02071 -0.80829,-4.69426 0,-3.29531 1.2746,-5.75124 1.2746,-2.45594 3.45075,-3.79272 2.20723,-1.36786 4.94296,-1.36786 1.95853,0 3.73053,0.71502 1.8031,0.71502 3.17096,2.14506 1.39895,1.39895 2.20723,3.48183 0.80829,2.0518 0.80829,4.69426 0,2.67355 -0.80829,4.66317 -0.80828,1.98962 -2.20723,3.29531 -1.36786,1.2746 -3.10878,1.92744 -1.70983,0.65284 -3.5751,0.65284 z m 0.55958,-2.48702 q 0.5285,0 1.0259,-0.0622 0.52849,-0.0933 1.05699,-0.21761 1.33677,-0.93263 2.14505,-2.98443 0.80829,-2.05179 0.80829,-4.63208 0,-1.67874 -0.37306,-3.23313 -0.37305,-1.55439 -1.15024,-2.7979 -0.74611,-1.24352 -1.92745,-1.98962 -1.15025,-0.74611 -2.76681,-0.74611 -0.59067,0 -1.2746,0.12435 -0.65285,0.12435 -1.33678,0.37305 -0.7461,0.62176 -1.33677,1.74092 -0.59067,1.11916 -0.93264,2.61138 -0.31088,1.49221 -0.31088,3.13986 0,1.70983 0.37306,3.29531 0.40414,1.55439 1.18133,2.76682 0.7772,1.21242 1.95854,1.92744 1.21242,0.68393 2.86007,0.68393 z"
             id="path358"
             inkscape:label="O" />
          <path
             d="m 208.9327,597.48839 q -1.30568,0 -2.7979,-0.40414 -1.46112,-0.37305 -3.01551,-1.24351 l 1.33677,-3.17095 q 1.21243,0.83937 2.76682,1.58547 1.55439,0.71502 3.20204,1.05699 0.37305,-0.27979 0.55958,-0.68393 0.18653,-0.43523 0.18653,-0.90155 0,-0.80828 -0.55958,-1.36786 -0.5285,-0.55958 -1.39896,-0.99481 -0.87045,-0.43523 -1.86526,-0.83937 -0.96373,-0.43523 -1.83418,-0.99481 -0.83937,-0.55958 -1.39895,-1.36787 -0.55959,-0.80828 -0.55959,-1.98961 0,-1.46113 0.83938,-2.48703 0.87045,-1.05698 2.30049,-1.58548 1.43004,-0.52849 3.10878,-0.52849 1.11916,0 2.20724,0.2487 1.11916,0.24871 2.05179,0.71502 l -1.0259,2.58029 q -1.02589,-0.83937 -2.45593,-1.18134 -1.39895,-0.37305 -2.58029,-0.31087 -0.65284,0.34196 -0.87046,0.77719 -0.21761,0.43523 -0.21761,0.83937 0,0.7772 0.55958,1.30569 0.55958,0.52849 1.43004,0.96372 0.87045,0.43523 1.86526,0.87046 0.99481,0.43523 1.86527,1.0259 0.87046,0.55958 1.43004,1.39895 0.55958,0.83937 0.55958,2.08288 0,1.98962 -1.55439,3.29531 -1.55439,1.30568 -4.13468,1.30568 z m 2.58029,-10.81855 -0.74611,-4.0725 3.29531,-0.0622 q 0.0622,1.0259 -0.0622,2.08289 -0.12436,1.05698 -0.46632,2.05179 z"
             id="path360"
             inkscape:label="s" />
        </g>
        <g
           aria-label="by"
           id="text458"
           style="font-size:16.1348px;line-height:1.25;font-family:Eczar;-inkscape-font-specification:'Eczar, Normal';text-align:center;text-anchor:middle;fill:#ffffff;stroke-width:0.336141"
           inkscape:label="by"
           transform="matrix(0.91415832,0,0,0.91415832,14.104333,53.12924)">
          <path
             d="m 160.11928,554.59782 q -0.6454,0 -1.33919,-0.17748 -0.67766,-0.17748 -1.41986,-0.51632 l 1.00035,-1.43599 q 0.12908,0.22588 0.51632,0.51631 0.40337,0.29043 1.04876,0.46791 0.64539,0.16135 1.46827,0.0323 0.66152,-0.40337 1.01649,-1.21011 0.35496,-0.82288 0.35496,-1.69415 0,-0.72607 -0.25815,-1.35533 -0.24203,-0.64539 -0.6938,-1.03262 -0.43564,-0.40337 -1.03263,-0.40337 -0.58085,0 -1.21011,0.33883 -0.61312,0.33883 -1.22624,0.77447 l -0.14522,-0.79061 2.5009,-1.58121 q 0.80674,-0.17748 1.45213,0.0645 0.66153,0.24202 1.12944,0.79061 0.48404,0.53244 0.7422,1.27464 0.25815,0.74221 0.25815,1.59735 0,0.93582 -0.30656,1.72642 -0.30656,0.79061 -0.87128,1.3876 -0.54858,0.58085 -1.30691,0.90354 -0.75834,0.3227 -1.67802,0.3227 z m -2.75905,-0.6938 v -10.87485 l 0.80674,-0.59699 0.62925,0.58085 v 10.51989 z m -1.19398,-10.21332 -0.19362,-0.75834 q 0.48405,-0.22589 1.08103,-0.35497 0.61313,-0.12907 1.11331,-0.14521 l 0.20975,0.40337 -0.70993,0.7422 z"
             id="path363"
             inkscape:label="b" />
          <path
             d="m 166.02458,557.79251 -0.80674,-1.46827 q 0.85515,-0.3711 1.61348,-0.82287 0.75834,-0.45177 1.3876,-1.14557 -0.20976,-0.0807 -0.45178,-0.20975 -0.22589,-0.12908 -0.40337,-0.29043 l -2.51703,-6.93796 1.59735,-0.17749 1.54894,4.61456 0.27429,1.8555 h 0.30656 q 0.33883,-0.91969 0.67766,-2.04912 0.35497,-1.12944 0.64539,-2.27501 0.29043,-1.1617 0.48405,-2.14593 h 1.51667 q -0.30656,1.0649 -0.67766,2.24274 -0.3711,1.16171 -0.75834,2.30728 -0.38723,1.12943 -0.7422,2.09752 -0.3711,0.87128 -0.87128,1.66189 -0.50018,0.7906 -1.19397,1.46826 -0.67766,0.6938 -1.62962,1.27465 z m 0.12908,-10.14879 -1.95231,-0.11294 0.0161,-0.79061 h 2.24274 z m -0.0484,0.24202 0.22588,-1.14557 h 1.27465 l 0.0968,0.58086 q -0.38723,0.16134 -0.7906,0.30656 -0.38724,0.12908 -0.80674,0.25815 z m 5.08246,-0.24202 -1.95231,-0.11294 0.0161,-0.79061 h 2.24274 z m -0.14521,0.24202 0.22588,-1.14557 h 1.27465 l 0.0968,0.58086 q -0.38724,0.16134 -0.7906,0.30656 -0.38724,0.12908 -0.80674,0.25815 z"
             id="path365"
             inkscape:label="y" />
        </g>
      </g>
    </g>
  </g>
</svg>
